<?xml version="1.0" encoding="UTF-8" standalone="no"?>
<!DOCTYPE svg PUBLIC "-//W3C//DTD SVG 1.1//EN"
 "http://www.w3.org/Graphics/SVG/1.1/DTD/svg11.dtd">
<!-- Generated by graphviz version 2.40.1 (20161225.0304)
 -->
<!-- Title: controllers_diagram Pages: 1 -->
<svg width="867pt" height="823pt"
 viewBox="0.00 0.00 867.00 823.00" xmlns="http://www.w3.org/2000/svg" xmlns:xlink="http://www.w3.org/1999/xlink">
<g id="graph0" class="graph" transform="scale(1 1) rotate(0) translate(4 819)">
<title>controllers_diagram</title>
<polygon fill="transparent" stroke="transparent" points="-4,4 -4,-819 863,-819 863,4 -4,4"/>
<!-- _diagram_info -->
<g id="node1" class="node">
<title>_diagram_info</title>
<text text-anchor="start" x="584" y="-319.6" font-family="Times,serif" font-size="13.00" fill="#000000">Controllers diagram</text>
<text text-anchor="start" x="584" y="-305.6" font-family="Times,serif" font-size="13.00" fill="#000000">Date: Jan 25 2019 &#45; 01:07</text>
<text text-anchor="start" x="584" y="-291.6" font-family="Times,serif" font-size="13.00" fill="#000000">Migration version: 20190124224331</text>
<text text-anchor="start" x="584" y="-277.6" font-family="Times,serif" font-size="13.00" fill="#000000">Generated by RailRoady 1.5.3</text>
<text text-anchor="start" x="584" y="-263.6" font-family="Times,serif" font-size="13.00" fill="#000000">http://railroady.prestonlee.com</text>
</g>
<!-- LandingController -->
<g id="node2" class="node">
<title>LandingController</title>
<path fill="none" stroke="#000000" d="M556,-.5C556,-.5 649,-.5 649,-.5 655,-.5 661,-6.5 661,-12.5 661,-12.5 661,-81.5 661,-81.5 661,-87.5 655,-93.5 649,-93.5 649,-93.5 556,-93.5 556,-93.5 550,-93.5 544,-87.5 544,-81.5 544,-81.5 544,-12.5 544,-12.5 544,-6.5 550,-.5 556,-.5"/>
<text text-anchor="middle" x="602.5" y="-78.3" font-family="Times,serif" font-size="14.00" fill="#000000">LandingController</text>
<polyline fill="none" stroke="#000000" points="544,-70.5 661,-70.5 "/>
<text text-anchor="start" x="552" y="-55.3" font-family="Times,serif" font-size="14.00" fill="#000000">index</text>
<polyline fill="none" stroke="#000000" points="544,-47.5 661,-47.5 "/>
<polyline fill="none" stroke="#000000" points="544,-23.5 661,-23.5 "/>
<text text-anchor="start" x="552" y="-8.3" font-family="Times,serif" font-size="14.00" fill="#000000">_layout</text>
</g>
<!-- OrdersController -->
<g id="node3" class="node">
<title>OrdersController</title>
<path fill="none" stroke="#000000" d="M668,-496.5C668,-496.5 753,-496.5 753,-496.5 759,-496.5 765,-502.5 765,-508.5 765,-508.5 765,-637.5 765,-637.5 765,-643.5 759,-649.5 753,-649.5 753,-649.5 668,-649.5 668,-649.5 662,-649.5 656,-643.5 656,-637.5 656,-637.5 656,-508.5 656,-508.5 656,-502.5 662,-496.5 668,-496.5"/>
<text text-anchor="middle" x="710.5" y="-634.3" font-family="Times,serif" font-size="14.00" fill="#000000">OrdersController</text>
<polyline fill="none" stroke="#000000" points="656,-626.5 765,-626.5 "/>
<text text-anchor="start" x="664" y="-611.3" font-family="Times,serif" font-size="14.00" fill="#000000">create</text>
<text text-anchor="start" x="664" y="-596.3" font-family="Times,serif" font-size="14.00" fill="#000000">destroy</text>
<text text-anchor="start" x="664" y="-581.3" font-family="Times,serif" font-size="14.00" fill="#000000">index</text>
<text text-anchor="start" x="664" y="-566.3" font-family="Times,serif" font-size="14.00" fill="#000000">new</text>
<text text-anchor="start" x="664" y="-551.3" font-family="Times,serif" font-size="14.00" fill="#000000">show</text>
<polyline fill="none" stroke="#000000" points="656,-543.5 765,-543.5 "/>
<polyline fill="none" stroke="#000000" points="656,-519.5 765,-519.5 "/>
<text text-anchor="start" x="664" y="-504.3" font-family="Times,serif" font-size="14.00" fill="#000000">_layout</text>
</g>
<!-- ProductsController -->
<g id="node4" class="node">
<title>ProductsController</title>
<path fill="none" stroke="#000000" d="M444,-256.5C444,-256.5 539,-256.5 539,-256.5 545,-256.5 551,-262.5 551,-268.5 551,-268.5 551,-457.5 551,-457.5 551,-463.5 545,-469.5 539,-469.5 539,-469.5 444,-469.5 444,-469.5 438,-469.5 432,-463.5 432,-457.5 432,-457.5 432,-268.5 432,-268.5 432,-262.5 438,-256.5 444,-256.5"/>
<text text-anchor="middle" x="491.5" y="-454.3" font-family="Times,serif" font-size="14.00" fill="#000000">ProductsController</text>
<polyline fill="none" stroke="#000000" points="432,-446.5 551,-446.5 "/>
<text text-anchor="start" x="440" y="-431.3" font-family="Times,serif" font-size="14.00" fill="#000000">create</text>
<text text-anchor="start" x="440" y="-416.3" font-family="Times,serif" font-size="14.00" fill="#000000">destroy</text>
<text text-anchor="start" x="440" y="-401.3" font-family="Times,serif" font-size="14.00" fill="#000000">edit</text>
<text text-anchor="start" x="440" y="-386.3" font-family="Times,serif" font-size="14.00" fill="#000000">index</text>
<text text-anchor="start" x="440" y="-371.3" font-family="Times,serif" font-size="14.00" fill="#000000">new</text>
<text text-anchor="start" x="440" y="-356.3" font-family="Times,serif" font-size="14.00" fill="#000000">show</text>
<text text-anchor="start" x="440" y="-341.3" font-family="Times,serif" font-size="14.00" fill="#000000">update</text>
<polyline fill="none" stroke="#000000" points="432,-333.5 551,-333.5 "/>
<polyline fill="none" stroke="#000000" points="432,-309.5 551,-309.5 "/>
<text text-anchor="start" x="440" y="-294.3" font-family="Times,serif" font-size="14.00" fill="#000000">_layout</text>
<text text-anchor="start" x="440" y="-279.3" font-family="Times,serif" font-size="14.00" fill="#000000">product_params</text>
<text text-anchor="start" x="440" y="-264.3" font-family="Times,serif" font-size="14.00" fill="#000000">set_product</text>
</g>
<!-- BillingsController -->
<g id="node5" class="node">
<title>BillingsController</title>
<path fill="none" stroke="#000000" d="M700,-.5C700,-.5 791,-.5 791,-.5 797,-.5 803,-6.5 803,-12.5 803,-12.5 803,-111.5 803,-111.5 803,-117.5 797,-123.5 791,-123.5 791,-123.5 700,-123.5 700,-123.5 694,-123.5 688,-117.5 688,-111.5 688,-111.5 688,-12.5 688,-12.5 688,-6.5 694,-.5 700,-.5"/>
<text text-anchor="middle" x="745.5" y="-108.3" font-family="Times,serif" font-size="14.00" fill="#000000">BillingsController</text>
<polyline fill="none" stroke="#000000" points="688,-100.5 803,-100.5 "/>
<text text-anchor="start" x="696" y="-85.3" font-family="Times,serif" font-size="14.00" fill="#000000">pre_pay_1</text>
<text text-anchor="start" x="696" y="-70.3" font-family="Times,serif" font-size="14.00" fill="#000000">pre_pay_2</text>
<text text-anchor="start" x="696" y="-55.3" font-family="Times,serif" font-size="14.00" fill="#000000">pre_pay_3</text>
<polyline fill="none" stroke="#000000" points="688,-47.5 803,-47.5 "/>
<polyline fill="none" stroke="#000000" points="688,-23.5 803,-23.5 "/>
<text text-anchor="start" x="696" y="-8.3" font-family="Times,serif" font-size="14.00" fill="#000000">_layout</text>
</g>
<!-- ApplicationController -->
<g id="node6" class="node">
<title>ApplicationController</title>
<path fill="none" stroke="#000000" d="M588,-368.5C588,-368.5 758,-368.5 758,-368.5 764,-368.5 770,-374.5 770,-380.5 770,-380.5 770,-449.5 770,-449.5 770,-455.5 764,-461.5 758,-461.5 758,-461.5 588,-461.5 588,-461.5 582,-461.5 576,-455.5 576,-449.5 576,-449.5 576,-380.5 576,-380.5 576,-374.5 582,-368.5 588,-368.5"/>
<text text-anchor="middle" x="673" y="-446.3" font-family="Times,serif" font-size="14.00" fill="#000000">ApplicationController</text>
<polyline fill="none" stroke="#000000" points="576,-438.5 770,-438.5 "/>
<polyline fill="none" stroke="#000000" points="576,-414.5 770,-414.5 "/>
<text text-anchor="start" x="584" y="-399.3" font-family="Times,serif" font-size="14.00" fill="#000000">configure_permitted_parameters</text>
<polyline fill="none" stroke="#000000" points="576,-391.5 770,-391.5 "/>
<text text-anchor="start" x="584" y="-376.3" font-family="Times,serif" font-size="14.00" fill="#000000">_layout</text>
</g>
<!-- BrandsController -->
<g id="node7" class="node">
<title>BrandsController</title>
<path fill="none" stroke="#000000" d="M300,-480.5C300,-480.5 386,-480.5 386,-480.5 392,-480.5 398,-486.5 398,-492.5 398,-492.5 398,-681.5 398,-681.5 398,-687.5 392,-693.5 386,-693.5 386,-693.5 300,-693.5 300,-693.5 294,-693.5 288,-687.5 288,-681.5 288,-681.5 288,-492.5 288,-492.5 288,-486.5 294,-480.5 300,-480.5"/>
<text text-anchor="middle" x="343" y="-678.3" font-family="Times,serif" font-size="14.00" fill="#000000">BrandsController</text>
<polyline fill="none" stroke="#000000" points="288,-670.5 398,-670.5 "/>
<text text-anchor="start" x="296" y="-655.3" font-family="Times,serif" font-size="14.00" fill="#000000">create</text>
<text text-anchor="start" x="296" y="-640.3" font-family="Times,serif" font-size="14.00" fill="#000000">destroy</text>
<text text-anchor="start" x="296" y="-625.3" font-family="Times,serif" font-size="14.00" fill="#000000">edit</text>
<text text-anchor="start" x="296" y="-610.3" font-family="Times,serif" font-size="14.00" fill="#000000">index</text>
<text text-anchor="start" x="296" y="-595.3" font-family="Times,serif" font-size="14.00" fill="#000000">new</text>
<text text-anchor="start" x="296" y="-580.3" font-family="Times,serif" font-size="14.00" fill="#000000">show</text>
<text text-anchor="start" x="296" y="-565.3" font-family="Times,serif" font-size="14.00" fill="#000000">update</text>
<polyline fill="none" stroke="#000000" points="288,-557.5 398,-557.5 "/>
<polyline fill="none" stroke="#000000" points="288,-533.5 398,-533.5 "/>
<text text-anchor="start" x="296" y="-518.3" font-family="Times,serif" font-size="14.00" fill="#000000">_layout</text>
<text text-anchor="start" x="296" y="-503.3" font-family="Times,serif" font-size="14.00" fill="#000000">brand_params</text>
<text text-anchor="start" x="296" y="-488.3" font-family="Times,serif" font-size="14.00" fill="#000000">set_brand</text>
</g>
<!-- Users::PasswordsController -->
<g id="node8" class="node">
<title>Users::PasswordsController</title>
<path fill="none" stroke="#000000" d="M364,-.5C364,-.5 507,-.5 507,-.5 513,-.5 519,-6.5 519,-12.5 519,-12.5 519,-82.5 519,-82.5 519,-88.5 513,-94.5 507,-94.5 507,-94.5 364,-94.5 364,-94.5 358,-94.5 352,-88.5 352,-82.5 352,-82.5 352,-12.5 352,-12.5 352,-6.5 358,-.5 364,-.5"/>
<text text-anchor="middle" x="435.5" y="-79.3" font-family="Times,serif" font-size="14.00" fill="#000000">Users::PasswordsController</text>
<polyline fill="none" stroke="#000000" points="352,-71.5 519,-71.5 "/>
<polyline fill="none" stroke="#000000" points="352,-47.5 519,-47.5 "/>
<polyline fill="none" stroke="#000000" points="352,-23.5 519,-23.5 "/>
<text text-anchor="start" x="360" y="-8.3" font-family="Times,serif" font-size="14.00" fill="#000000">_layout</text>
</g>
<!-- Users::UnlocksController -->
<g id="node9" class="node">
<title>Users::UnlocksController</title>
<path fill="none" stroke="#000000" d="M716,-688.5C716,-688.5 847,-688.5 847,-688.5 853,-688.5 859,-694.5 859,-700.5 859,-700.5 859,-770.5 859,-770.5 859,-776.5 853,-782.5 847,-782.5 847,-782.5 716,-782.5 716,-782.5 710,-782.5 704,-776.5 704,-770.5 704,-770.5 704,-700.5 704,-700.5 704,-694.5 710,-688.5 716,-688.5"/>
<text text-anchor="middle" x="781.5" y="-767.3" font-family="Times,serif" font-size="14.00" fill="#000000">Users::UnlocksController</text>
<polyline fill="none" stroke="#000000" points="704,-759.5 859,-759.5 "/>
<polyline fill="none" stroke="#000000" points="704,-735.5 859,-735.5 "/>
<polyline fill="none" stroke="#000000" points="704,-711.5 859,-711.5 "/>
<text text-anchor="start" x="712" y="-696.3" font-family="Times,serif" font-size="14.00" fill="#000000">_layout</text>
</g>
<!-- Users::RegistrationsController -->
<g id="node10" class="node">
<title>Users::RegistrationsController</title>
<path fill="none" stroke="#000000" d="M108,-80.5C108,-80.5 266,-80.5 266,-80.5 272,-80.5 278,-86.5 278,-92.5 278,-92.5 278,-161.5 278,-161.5 278,-167.5 272,-173.5 266,-173.5 266,-173.5 108,-173.5 108,-173.5 102,-173.5 96,-167.5 96,-161.5 96,-161.5 96,-92.5 96,-92.5 96,-86.5 102,-80.5 108,-80.5"/>
<text text-anchor="middle" x="187" y="-158.3" font-family="Times,serif" font-size="14.00" fill="#000000">Users::RegistrationsController</text>
<polyline fill="none" stroke="#000000" points="96,-150.5 278,-150.5 "/>
<text text-anchor="start" x="104" y="-135.3" font-family="Times,serif" font-size="14.00" fill="#000000">update_resource</text>
<polyline fill="none" stroke="#000000" points="96,-127.5 278,-127.5 "/>
<polyline fill="none" stroke="#000000" points="96,-103.5 278,-103.5 "/>
<text text-anchor="start" x="104" y="-88.3" font-family="Times,serif" font-size="14.00" fill="#000000">_layout</text>
</g>
<!-- Users::SessionsController -->
<g id="node11" class="node">
<title>Users::SessionsController</title>
<path fill="none" stroke="#000000" d="M332,-720.5C332,-720.5 465,-720.5 465,-720.5 471,-720.5 477,-726.5 477,-732.5 477,-732.5 477,-802.5 477,-802.5 477,-808.5 471,-814.5 465,-814.5 465,-814.5 332,-814.5 332,-814.5 326,-814.5 320,-808.5 320,-802.5 320,-802.5 320,-732.5 320,-732.5 320,-726.5 326,-720.5 332,-720.5"/>
<text text-anchor="middle" x="398.5" y="-799.3" font-family="Times,serif" font-size="14.00" fill="#000000">Users::SessionsController</text>
<polyline fill="none" stroke="#000000" points="320,-791.5 477,-791.5 "/>
<polyline fill="none" stroke="#000000" points="320,-767.5 477,-767.5 "/>
<polyline fill="none" stroke="#000000" points="320,-743.5 477,-743.5 "/>
<text text-anchor="start" x="328" y="-728.3" font-family="Times,serif" font-size="14.00" fill="#000000">_layout</text>
</g>
<!-- Users::OmniauthCallbacksController -->
<g id="node12" class="node">
<title>Users::OmniauthCallbacksController</title>
<path fill="none" stroke="#000000" d="M444,-128.5C444,-128.5 638,-128.5 638,-128.5 644,-128.5 650,-134.5 650,-140.5 650,-140.5 650,-209.5 650,-209.5 650,-215.5 644,-221.5 638,-221.5 638,-221.5 444,-221.5 444,-221.5 438,-221.5 432,-215.5 432,-209.5 432,-209.5 432,-140.5 432,-140.5 432,-134.5 438,-128.5 444,-128.5"/>
<text text-anchor="middle" x="541" y="-206.3" font-family="Times,serif" font-size="14.00" fill="#000000">Users::OmniauthCallbacksController</text>
<polyline fill="none" stroke="#000000" points="432,-198.5 650,-198.5 "/>
<text text-anchor="start" x="440" y="-183.3" font-family="Times,serif" font-size="14.00" fill="#000000">google_oauth2</text>
<polyline fill="none" stroke="#000000" points="432,-175.5 650,-175.5 "/>
<polyline fill="none" stroke="#000000" points="432,-151.5 650,-151.5 "/>
<text text-anchor="start" x="440" y="-136.3" font-family="Times,serif" font-size="14.00" fill="#000000">_layout</text>
</g>
<!-- Users::ConfirmationsController -->
<g id="node13" class="node">
<title>Users::ConfirmationsController</title>
<path fill="none" stroke="#000000" d="M76,-448.5C76,-448.5 241,-448.5 241,-448.5 247,-448.5 253,-454.5 253,-460.5 253,-460.5 253,-530.5 253,-530.5 253,-536.5 247,-542.5 241,-542.5 241,-542.5 76,-542.5 76,-542.5 70,-542.5 64,-536.5 64,-530.5 64,-530.5 64,-460.5 64,-460.5 64,-454.5 70,-448.5 76,-448.5"/>
<text text-anchor="middle" x="158.5" y="-527.3" font-family="Times,serif" font-size="14.00" fill="#000000">Users::ConfirmationsController</text>
<polyline fill="none" stroke="#000000" points="64,-519.5 253,-519.5 "/>
<polyline fill="none" stroke="#000000" points="64,-495.5 253,-495.5 "/>
<polyline fill="none" stroke="#000000" points="64,-471.5 253,-471.5 "/>
<text text-anchor="start" x="72" y="-456.3" font-family="Times,serif" font-size="14.00" fill="#000000">_layout</text>
</g>
<!-- EventsController -->
<g id="node14" class="node">
<title>EventsController</title>
<path fill="none" stroke="#000000" d="M524,-496.5C524,-496.5 609,-496.5 609,-496.5 615,-496.5 621,-502.5 621,-508.5 621,-508.5 621,-697.5 621,-697.5 621,-703.5 615,-709.5 609,-709.5 609,-709.5 524,-709.5 524,-709.5 518,-709.5 512,-703.5 512,-697.5 512,-697.5 512,-508.5 512,-508.5 512,-502.5 518,-496.5 524,-496.5"/>
<text text-anchor="middle" x="566.5" y="-694.3" font-family="Times,serif" font-size="14.00" fill="#000000">EventsController</text>
<polyline fill="none" stroke="#000000" points="512,-686.5 621,-686.5 "/>
<text text-anchor="start" x="520" y="-671.3" font-family="Times,serif" font-size="14.00" fill="#000000">create</text>
<text text-anchor="start" x="520" y="-656.3" font-family="Times,serif" font-size="14.00" fill="#000000">destroy</text>
<text text-anchor="start" x="520" y="-641.3" font-family="Times,serif" font-size="14.00" fill="#000000">edit</text>
<text text-anchor="start" x="520" y="-626.3" font-family="Times,serif" font-size="14.00" fill="#000000">index</text>
<text text-anchor="start" x="520" y="-611.3" font-family="Times,serif" font-size="14.00" fill="#000000">new</text>
<text text-anchor="start" x="520" y="-596.3" font-family="Times,serif" font-size="14.00" fill="#000000">show</text>
<text text-anchor="start" x="520" y="-581.3" font-family="Times,serif" font-size="14.00" fill="#000000">update</text>
<polyline fill="none" stroke="#000000" points="512,-573.5 621,-573.5 "/>
<polyline fill="none" stroke="#000000" points="512,-549.5 621,-549.5 "/>
<text text-anchor="start" x="520" y="-534.3" font-family="Times,serif" font-size="14.00" fill="#000000">_layout</text>
<text text-anchor="start" x="520" y="-519.3" font-family="Times,serif" font-size="14.00" fill="#000000">event_params</text>
<text text-anchor="start" x="520" y="-504.3" font-family="Times,serif" font-size="14.00" fill="#000000">set_event</text>
</g>
<!-- BrandPlansController -->
<g id="node15" class="node">
<title>BrandPlansController</title>
<path fill="none" stroke="#000000" d="M140,-272.5C140,-272.5 250,-272.5 250,-272.5 256,-272.5 262,-278.5 262,-284.5 262,-284.5 262,-398.5 262,-398.5 262,-404.5 256,-410.5 250,-410.5 250,-410.5 140,-410.5 140,-410.5 134,-410.5 128,-404.5 128,-398.5 128,-398.5 128,-284.5 128,-284.5 128,-278.5 134,-272.5 140,-272.5"/>
<text text-anchor="middle" x="195" y="-395.3" font-family="Times,serif" font-size="14.00" fill="#000000">BrandPlansController</text>
<polyline fill="none" stroke="#000000" points="128,-387.5 262,-387.5 "/>
<text text-anchor="start" x="136" y="-372.3" font-family="Times,serif" font-size="14.00" fill="#000000">create</text>
<text text-anchor="start" x="136" y="-357.3" font-family="Times,serif" font-size="14.00" fill="#000000">index</text>
<text text-anchor="start" x="136" y="-342.3" font-family="Times,serif" font-size="14.00" fill="#000000">new</text>
<text text-anchor="start" x="136" y="-327.3" font-family="Times,serif" font-size="14.00" fill="#000000">show</text>
<polyline fill="none" stroke="#000000" points="128,-319.5 262,-319.5 "/>
<polyline fill="none" stroke="#000000" points="128,-295.5 262,-295.5 "/>
<text text-anchor="start" x="136" y="-280.3" font-family="Times,serif" font-size="14.00" fill="#000000">_layout</text>
</g>
<!-- SpecificationsController -->
<g id="node16" class="node">
<title>SpecificationsController</title>
<path fill="none" stroke="#000000" d="M124,-576.5C124,-576.5 249,-576.5 249,-576.5 255,-576.5 261,-582.5 261,-588.5 261,-588.5 261,-702.5 261,-702.5 261,-708.5 255,-714.5 249,-714.5 249,-714.5 124,-714.5 124,-714.5 118,-714.5 112,-708.5 112,-702.5 112,-702.5 112,-588.5 112,-588.5 112,-582.5 118,-576.5 124,-576.5"/>
<text text-anchor="middle" x="186.5" y="-699.3" font-family="Times,serif" font-size="14.00" fill="#000000">SpecificationsController</text>
<polyline fill="none" stroke="#000000" points="112,-691.5 261,-691.5 "/>
<text text-anchor="start" x="120" y="-676.3" font-family="Times,serif" font-size="14.00" fill="#000000">create</text>
<text text-anchor="start" x="120" y="-661.3" font-family="Times,serif" font-size="14.00" fill="#000000">destroy</text>
<text text-anchor="start" x="120" y="-646.3" font-family="Times,serif" font-size="14.00" fill="#000000">index</text>
<text text-anchor="start" x="120" y="-631.3" font-family="Times,serif" font-size="14.00" fill="#000000">show</text>
<polyline fill="none" stroke="#000000" points="112,-623.5 261,-623.5 "/>
<polyline fill="none" stroke="#000000" points="112,-599.5 261,-599.5 "/>
<text text-anchor="start" x="120" y="-584.3" font-family="Times,serif" font-size="14.00" fill="#000000">_layout</text>
</g>
<!-- ProjectsController -->
<g id="node17" class="node">
<title>ProjectsController</title>
<path fill="none" stroke="#000000" d="M300,-208.5C300,-208.5 392,-208.5 392,-208.5 398,-208.5 404,-214.5 404,-220.5 404,-220.5 404,-439.5 404,-439.5 404,-445.5 398,-451.5 392,-451.5 392,-451.5 300,-451.5 300,-451.5 294,-451.5 288,-445.5 288,-439.5 288,-439.5 288,-220.5 288,-220.5 288,-214.5 294,-208.5 300,-208.5"/>
<text text-anchor="middle" x="346" y="-436.3" font-family="Times,serif" font-size="14.00" fill="#000000">ProjectsController</text>
<polyline fill="none" stroke="#000000" points="288,-428.5 404,-428.5 "/>
<text text-anchor="start" x="296" y="-413.3" font-family="Times,serif" font-size="14.00" fill="#000000">create</text>
<text text-anchor="start" x="296" y="-398.3" font-family="Times,serif" font-size="14.00" fill="#000000">destroy</text>
<text text-anchor="start" x="296" y="-383.3" font-family="Times,serif" font-size="14.00" fill="#000000">edit</text>
<text text-anchor="start" x="296" y="-368.3" font-family="Times,serif" font-size="14.00" fill="#000000">index</text>
<text text-anchor="start" x="296" y="-353.3" font-family="Times,serif" font-size="14.00" fill="#000000">new</text>
<text text-anchor="start" x="296" y="-338.3" font-family="Times,serif" font-size="14.00" fill="#000000">show</text>
<text text-anchor="start" x="296" y="-323.3" font-family="Times,serif" font-size="14.00" fill="#000000">status_closed</text>
<text text-anchor="start" x="296" y="-308.3" font-family="Times,serif" font-size="14.00" fill="#000000">status_opened</text>
<text text-anchor="start" x="296" y="-293.3" font-family="Times,serif" font-size="14.00" fill="#000000">update</text>
<polyline fill="none" stroke="#000000" points="288,-285.5 404,-285.5 "/>
<polyline fill="none" stroke="#000000" points="288,-261.5 404,-261.5 "/>
<text text-anchor="start" x="296" y="-246.3" font-family="Times,serif" font-size="14.00" fill="#000000">_layout</text>
<text text-anchor="start" x="296" y="-231.3" font-family="Times,serif" font-size="14.00" fill="#000000">project_params</text>
<text text-anchor="start" x="296" y="-216.3" font-family="Times,serif" font-size="14.00" fill="#000000">set_project</text>
</g>
<!-- UserController -->
<g id="node18" class="node">
<title>UserController</title>
<path fill="none" stroke="#000000" d="M12,-320.5C12,-320.5 86,-320.5 86,-320.5 92,-320.5 98,-326.5 98,-332.5 98,-332.5 98,-401.5 98,-401.5 98,-407.5 92,-413.5 86,-413.5 86,-413.5 12,-413.5 12,-413.5 6,-413.5 0,-407.5 0,-401.5 0,-401.5 0,-332.5 0,-332.5 0,-326.5 6,-320.5 12,-320.5"/>
<text text-anchor="middle" x="49" y="-398.3" font-family="Times,serif" font-size="14.00" fill="#000000">UserController</text>
<polyline fill="none" stroke="#000000" points="0,-390.5 98,-390.5 "/>
<text text-anchor="start" x="8" y="-375.3" font-family="Times,serif" font-size="14.00" fill="#000000">show</text>
<polyline fill="none" stroke="#000000" points="0,-367.5 98,-367.5 "/>
<polyline fill="none" stroke="#000000" points="0,-343.5 98,-343.5 "/>
<text text-anchor="start" x="8" y="-328.3" font-family="Times,serif" font-size="14.00" fill="#000000">_layout</text>
</g>
</g>
</svg>
