<?xml version="1.0" encoding="UTF-8" standalone="no"?>
<!DOCTYPE svg PUBLIC "-//W3C//DTD SVG 1.1//EN"
 "http://www.w3.org/Graphics/SVG/1.1/DTD/svg11.dtd">
<!-- Generated by graphviz version 2.40.1 (20161225.0304)
 -->
<!-- Title: models_diagram Pages: 1 -->
<svg width="1844pt" height="1325pt"
 viewBox="0.00 0.00 1844.34 1325.00" xmlns="http://www.w3.org/2000/svg" xmlns:xlink="http://www.w3.org/1999/xlink">
<g id="graph0" class="graph" transform="scale(1 1) rotate(0) translate(4 1321)">
<title>models_diagram</title>
<polygon fill="transparent" stroke="transparent" points="-4,4 -4,-1321 1840.3431,-1321 1840.3431,4 -4,4"/>
<!-- _diagram_info -->
<g id="node1" class="node">
<title>_diagram_info</title>
<text text-anchor="start" x="598" y="-1243.1" font-family="Times,serif" font-size="13.00" fill="#000000">Models diagram</text>
<text text-anchor="start" x="598" y="-1229.1" font-family="Times,serif" font-size="13.00" fill="#000000">Date: Jan 25 2019 &#45; 01:07</text>
<text text-anchor="start" x="598" y="-1215.1" font-family="Times,serif" font-size="13.00" fill="#000000">Migration version: 20190124224331</text>
<text text-anchor="start" x="598" y="-1201.1" font-family="Times,serif" font-size="13.00" fill="#000000">Generated by RailRoady 1.5.3</text>
<text text-anchor="start" x="598" y="-1187.1" font-family="Times,serif" font-size="13.00" fill="#000000">http://railroady.prestonlee.com</text>
</g>
<!-- Specification -->
<g id="node2" class="node">
<title>Specification</title>
<path fill="none" stroke="#000000" d="M1021,-489C1021,-489 1241,-489 1241,-489 1247,-489 1253,-495 1253,-501 1253,-501 1253,-583 1253,-583 1253,-589 1247,-595 1241,-595 1241,-595 1021,-595 1021,-595 1015,-595 1009,-589 1009,-583 1009,-583 1009,-501 1009,-501 1009,-495 1015,-489 1021,-489"/>
<text text-anchor="middle" x="1131" y="-579.8" font-family="Times,serif" font-size="14.00" fill="#000000">Specification</text>
<polyline fill="none" stroke="#000000" points="1009,-572 1253,-572 "/>
<text text-anchor="start" x="1017" y="-556.8" font-family="Times,serif" font-size="14.00" fill="#000000">id :bigint</text>
<text text-anchor="start" x="1017" y="-541.8" font-family="Times,serif" font-size="14.00" fill="#000000">project_id :bigint</text>
<text text-anchor="start" x="1017" y="-526.8" font-family="Times,serif" font-size="14.00" fill="#000000">product_id :bigint</text>
<text text-anchor="start" x="1017" y="-511.8" font-family="Times,serif" font-size="14.00" fill="#000000">created_at :timestamp without time zone</text>
<text text-anchor="start" x="1017" y="-496.8" font-family="Times,serif" font-size="14.00" fill="#000000">updated_at :timestamp without time zone</text>
</g>
<!-- Role -->
<g id="node3" class="node">
<title>Role</title>
<path fill="none" stroke="#000000" d="M871,-293.5C871,-293.5 1091,-293.5 1091,-293.5 1097,-293.5 1103,-299.5 1103,-305.5 1103,-305.5 1103,-402.5 1103,-402.5 1103,-408.5 1097,-414.5 1091,-414.5 1091,-414.5 871,-414.5 871,-414.5 865,-414.5 859,-408.5 859,-402.5 859,-402.5 859,-305.5 859,-305.5 859,-299.5 865,-293.5 871,-293.5"/>
<text text-anchor="middle" x="981" y="-399.3" font-family="Times,serif" font-size="14.00" fill="#000000">Role</text>
<polyline fill="none" stroke="#000000" points="859,-391.5 1103,-391.5 "/>
<text text-anchor="start" x="867" y="-376.3" font-family="Times,serif" font-size="14.00" fill="#000000">id :bigint</text>
<text text-anchor="start" x="867" y="-361.3" font-family="Times,serif" font-size="14.00" fill="#000000">name :character varying</text>
<text text-anchor="start" x="867" y="-346.3" font-family="Times,serif" font-size="14.00" fill="#000000">resource_type :character varying</text>
<text text-anchor="start" x="867" y="-331.3" font-family="Times,serif" font-size="14.00" fill="#000000">resource_id :bigint</text>
<text text-anchor="start" x="867" y="-316.3" font-family="Times,serif" font-size="14.00" fill="#000000">created_at :timestamp without time zone</text>
<text text-anchor="start" x="867" y="-301.3" font-family="Times,serif" font-size="14.00" fill="#000000">updated_at :timestamp without time zone</text>
</g>
<!-- Specification&#45;&gt;Role -->
<g id="edge1" class="edge">
<title>Specification&#45;&gt;Role</title>
<path fill="none" stroke="#510516" d="M1083.5689,-482.553C1068.3754,-463.5105 1051.4284,-442.2703 1035.7563,-422.6278"/>
<ellipse fill="none" stroke="#510516" cx="1086.1227" cy="-485.7539" rx="4" ry="4"/>
<polygon fill="#510516" stroke="#510516" points="1035.5958,-422.4267 1032.8765,-411.8033 1032.4774,-418.5183 1029.3589,-414.6099 1029.3589,-414.6099 1029.3589,-414.6099 1032.4774,-418.5183 1025.8414,-417.4164 1035.5958,-422.4267 1035.5958,-422.4267"/>
</g>
<!-- User -->
<g id="node11" class="node">
<title>User</title>
<path fill="none" stroke="#000000" d="M703.5,-.5C703.5,-.5 992.5,-.5 992.5,-.5 998.5,-.5 1004.5,-6.5 1004.5,-12.5 1004.5,-12.5 1004.5,-229.5 1004.5,-229.5 1004.5,-235.5 998.5,-241.5 992.5,-241.5 992.5,-241.5 703.5,-241.5 703.5,-241.5 697.5,-241.5 691.5,-235.5 691.5,-229.5 691.5,-229.5 691.5,-12.5 691.5,-12.5 691.5,-6.5 697.5,-.5 703.5,-.5"/>
<text text-anchor="middle" x="848" y="-226.3" font-family="Times,serif" font-size="14.00" fill="#000000">User</text>
<polyline fill="none" stroke="#000000" points="691.5,-218.5 1004.5,-218.5 "/>
<text text-anchor="start" x="699.5" y="-203.3" font-family="Times,serif" font-size="14.00" fill="#000000">id :bigint</text>
<text text-anchor="start" x="699.5" y="-188.3" font-family="Times,serif" font-size="14.00" fill="#000000">email :character varying</text>
<text text-anchor="start" x="699.5" y="-173.3" font-family="Times,serif" font-size="14.00" fill="#000000">encrypted_password :character varying</text>
<text text-anchor="start" x="699.5" y="-158.3" font-family="Times,serif" font-size="14.00" fill="#000000">reset_password_token :character varying</text>
<text text-anchor="start" x="699.5" y="-143.3" font-family="Times,serif" font-size="14.00" fill="#000000">reset_password_sent_at :timestamp without time zone</text>
<text text-anchor="start" x="699.5" y="-128.3" font-family="Times,serif" font-size="14.00" fill="#000000">remember_created_at :timestamp without time zone</text>
<text text-anchor="start" x="699.5" y="-113.3" font-family="Times,serif" font-size="14.00" fill="#000000">created_at :timestamp without time zone</text>
<text text-anchor="start" x="699.5" y="-98.3" font-family="Times,serif" font-size="14.00" fill="#000000">updated_at :timestamp without time zone</text>
<text text-anchor="start" x="699.5" y="-83.3" font-family="Times,serif" font-size="14.00" fill="#000000">firstname :character varying</text>
<text text-anchor="start" x="699.5" y="-68.3" font-family="Times,serif" font-size="14.00" fill="#000000">lastname :character varying</text>
<text text-anchor="start" x="699.5" y="-53.3" font-family="Times,serif" font-size="14.00" fill="#000000">city_id :bigint</text>
<text text-anchor="start" x="699.5" y="-38.3" font-family="Times,serif" font-size="14.00" fill="#000000">gender_id :bigint</text>
<text text-anchor="start" x="699.5" y="-23.3" font-family="Times,serif" font-size="14.00" fill="#000000">company :character varying</text>
<text text-anchor="start" x="699.5" y="-8.3" font-family="Times,serif" font-size="14.00" fill="#000000">brand_id :bigint</text>
</g>
<!-- Role&#45;&gt;User -->
<g id="edge2" class="edge">
<title>Role&#45;&gt;User</title>
<path fill="none" stroke="#c39020" d="M941.412,-284.6465C935.251,-273.8532 928.7192,-262.4104 922.0855,-250.7889"/>
<polygon fill="#c39020" stroke="#c39020" points="941.4456,-284.7055 942.4949,-295.6211 943.9243,-289.0479 946.403,-293.3902 946.403,-293.3902 946.403,-293.3902 943.9243,-289.0479 950.3111,-291.1594 941.4456,-284.7055 941.4456,-284.7055"/>
<polygon fill="#c39020" stroke="#c39020" points="921.9546,-250.5595 920.9053,-239.6439 919.4759,-246.2171 916.9972,-241.8748 916.9972,-241.8748 916.9972,-241.8748 919.4759,-246.2171 913.0891,-244.1056 921.9546,-250.5595 921.9546,-250.5595"/>
</g>
<!-- Order -->
<g id="node4" class="node">
<title>Order</title>
<path fill="none" stroke="#000000" d="M143,-38C143,-38 363,-38 363,-38 369,-38 375,-44 375,-50 375,-50 375,-192 375,-192 375,-198 369,-204 363,-204 363,-204 143,-204 143,-204 137,-204 131,-198 131,-192 131,-192 131,-50 131,-50 131,-44 137,-38 143,-38"/>
<text text-anchor="middle" x="253" y="-188.8" font-family="Times,serif" font-size="14.00" fill="#000000">Order</text>
<polyline fill="none" stroke="#000000" points="131,-181 375,-181 "/>
<text text-anchor="start" x="139" y="-165.8" font-family="Times,serif" font-size="14.00" fill="#000000">id :bigint</text>
<text text-anchor="start" x="139" y="-150.8" font-family="Times,serif" font-size="14.00" fill="#000000">payer :boolean</text>
<text text-anchor="start" x="139" y="-135.8" font-family="Times,serif" font-size="14.00" fill="#000000">user_id :bigint</text>
<text text-anchor="start" x="139" y="-120.8" font-family="Times,serif" font-size="14.00" fill="#000000">brand_plan_id :bigint</text>
<text text-anchor="start" x="139" y="-105.8" font-family="Times,serif" font-size="14.00" fill="#000000">quantity :integer</text>
<text text-anchor="start" x="139" y="-90.8" font-family="Times,serif" font-size="14.00" fill="#000000">price :integer</text>
<text text-anchor="start" x="139" y="-75.8" font-family="Times,serif" font-size="14.00" fill="#000000">billing_id :bigint</text>
<text text-anchor="start" x="139" y="-60.8" font-family="Times,serif" font-size="14.00" fill="#000000">created_at :timestamp without time zone</text>
<text text-anchor="start" x="139" y="-45.8" font-family="Times,serif" font-size="14.00" fill="#000000">updated_at :timestamp without time zone</text>
</g>
<!-- ProjectTraffic -->
<g id="node5" class="node">
<title>ProjectTraffic</title>
<path fill="none" stroke="#000000" d="M1096,-1173C1096,-1173 1316,-1173 1316,-1173 1322,-1173 1328,-1179 1328,-1185 1328,-1185 1328,-1252 1328,-1252 1328,-1258 1322,-1264 1316,-1264 1316,-1264 1096,-1264 1096,-1264 1090,-1264 1084,-1258 1084,-1252 1084,-1252 1084,-1185 1084,-1185 1084,-1179 1090,-1173 1096,-1173"/>
<text text-anchor="middle" x="1206" y="-1248.8" font-family="Times,serif" font-size="14.00" fill="#000000">ProjectTraffic</text>
<polyline fill="none" stroke="#000000" points="1084,-1241 1328,-1241 "/>
<text text-anchor="start" x="1092" y="-1225.8" font-family="Times,serif" font-size="14.00" fill="#000000">id :bigint</text>
<text text-anchor="start" x="1092" y="-1210.8" font-family="Times,serif" font-size="14.00" fill="#000000">category :character varying</text>
<text text-anchor="start" x="1092" y="-1195.8" font-family="Times,serif" font-size="14.00" fill="#000000">created_at :timestamp without time zone</text>
<text text-anchor="start" x="1092" y="-1180.8" font-family="Times,serif" font-size="14.00" fill="#000000">updated_at :timestamp without time zone</text>
</g>
<!-- Project -->
<g id="node17" class="node">
<title>Project</title>
<path fill="none" stroke="#000000" d="M871,-887.5C871,-887.5 1091,-887.5 1091,-887.5 1097,-887.5 1103,-893.5 1103,-899.5 1103,-899.5 1103,-1071.5 1103,-1071.5 1103,-1077.5 1097,-1083.5 1091,-1083.5 1091,-1083.5 871,-1083.5 871,-1083.5 865,-1083.5 859,-1077.5 859,-1071.5 859,-1071.5 859,-899.5 859,-899.5 859,-893.5 865,-887.5 871,-887.5"/>
<text text-anchor="middle" x="981" y="-1068.3" font-family="Times,serif" font-size="14.00" fill="#000000">Project</text>
<polyline fill="none" stroke="#000000" points="859,-1060.5 1103,-1060.5 "/>
<text text-anchor="start" x="867" y="-1045.3" font-family="Times,serif" font-size="14.00" fill="#000000">id :bigint</text>
<text text-anchor="start" x="867" y="-1030.3" font-family="Times,serif" font-size="14.00" fill="#000000">user_id :bigint</text>
<text text-anchor="start" x="867" y="-1015.3" font-family="Times,serif" font-size="14.00" fill="#000000">name :character varying</text>
<text text-anchor="start" x="867" y="-1000.3" font-family="Times,serif" font-size="14.00" fill="#000000">description :text</text>
<text text-anchor="start" x="867" y="-985.3" font-family="Times,serif" font-size="14.00" fill="#000000">office :character varying</text>
<text text-anchor="start" x="867" y="-970.3" font-family="Times,serif" font-size="14.00" fill="#000000">project_type_id :bigint</text>
<text text-anchor="start" x="867" y="-955.3" font-family="Times,serif" font-size="14.00" fill="#000000">project_traffic_id :bigint</text>
<text text-anchor="start" x="867" y="-940.3" font-family="Times,serif" font-size="14.00" fill="#000000">city_id :bigint</text>
<text text-anchor="start" x="867" y="-925.3" font-family="Times,serif" font-size="14.00" fill="#000000">created_at :timestamp without time zone</text>
<text text-anchor="start" x="867" y="-910.3" font-family="Times,serif" font-size="14.00" fill="#000000">updated_at :timestamp without time zone</text>
<text text-anchor="start" x="867" y="-895.3" font-family="Times,serif" font-size="14.00" fill="#000000">status_open :boolean</text>
</g>
<!-- ProjectTraffic&#45;&gt;Project -->
<g id="edge3" class="edge">
<title>ProjectTraffic&#45;&gt;Project</title>
<path fill="none" stroke="#1e5d1c" d="M1156.2325,-1166.9629C1134.6004,-1144.5618 1108.4198,-1117.4502 1082.9648,-1091.0903"/>
<ellipse fill="none" stroke="#1e5d1c" cx="1159.0371" cy="-1169.8673" rx="4" ry="4"/>
<polygon fill="#1e5d1c" stroke="#1e5d1c" points="1082.7554,-1090.8734 1079.046,-1080.5539 1079.2821,-1087.2766 1075.8089,-1083.6799 1075.8089,-1083.6799 1075.8089,-1083.6799 1079.2821,-1087.2766 1072.5718,-1086.8058 1082.7554,-1090.8734 1082.7554,-1090.8734"/>
</g>
<!-- Product -->
<g id="node20" class="node">
<title>Product</title>
<path fill="none" stroke="#000000" d="M1059,-654.5C1059,-654.5 1279,-654.5 1279,-654.5 1285,-654.5 1291,-660.5 1291,-666.5 1291,-666.5 1291,-838.5 1291,-838.5 1291,-844.5 1285,-850.5 1279,-850.5 1279,-850.5 1059,-850.5 1059,-850.5 1053,-850.5 1047,-844.5 1047,-838.5 1047,-838.5 1047,-666.5 1047,-666.5 1047,-660.5 1053,-654.5 1059,-654.5"/>
<text text-anchor="middle" x="1169" y="-835.3" font-family="Times,serif" font-size="14.00" fill="#000000">Product</text>
<polyline fill="none" stroke="#000000" points="1047,-827.5 1291,-827.5 "/>
<text text-anchor="start" x="1055" y="-812.3" font-family="Times,serif" font-size="14.00" fill="#000000">id :bigint</text>
<text text-anchor="start" x="1055" y="-797.3" font-family="Times,serif" font-size="14.00" fill="#000000">title :character varying</text>
<text text-anchor="start" x="1055" y="-782.3" font-family="Times,serif" font-size="14.00" fill="#000000">description :text</text>
<text text-anchor="start" x="1055" y="-767.3" font-family="Times,serif" font-size="14.00" fill="#000000">eett :text</text>
<text text-anchor="start" x="1055" y="-752.3" font-family="Times,serif" font-size="14.00" fill="#000000">code :character varying</text>
<text text-anchor="start" x="1055" y="-737.3" font-family="Times,serif" font-size="14.00" fill="#000000">project_traffic_id :bigint</text>
<text text-anchor="start" x="1055" y="-722.3" font-family="Times,serif" font-size="14.00" fill="#000000">project_type_id :bigint</text>
<text text-anchor="start" x="1055" y="-707.3" font-family="Times,serif" font-size="14.00" fill="#000000">created_at :timestamp without time zone</text>
<text text-anchor="start" x="1055" y="-692.3" font-family="Times,serif" font-size="14.00" fill="#000000">updated_at :timestamp without time zone</text>
<text text-anchor="start" x="1055" y="-677.3" font-family="Times,serif" font-size="14.00" fill="#000000">product_type_id :bigint</text>
<text text-anchor="start" x="1055" y="-662.3" font-family="Times,serif" font-size="14.00" fill="#000000">brand_id :bigint</text>
</g>
<!-- ProjectTraffic&#45;&gt;Product -->
<g id="edge4" class="edge">
<title>ProjectTraffic&#45;&gt;Product</title>
<path fill="none" stroke="#843f63" d="M1197.8525,-1164.7135C1194.3765,-1140.1512 1190.5437,-1110.6541 1188,-1084 1180.9041,-1009.6462 1176.124,-925.6389 1173.1331,-860.7966"/>
<ellipse fill="none" stroke="#843f63" cx="1198.4489" cy="-1168.8832" rx="4" ry="4"/>
<polygon fill="#843f63" stroke="#843f63" points="1173.122,-860.5485 1177.1638,-850.3547 1172.8952,-855.5536 1172.6684,-850.5588 1172.6684,-850.5588 1172.6684,-850.5588 1172.8952,-855.5536 1168.173,-850.7629 1173.122,-860.5485 1173.122,-860.5485"/>
</g>
<!-- Billing -->
<g id="node6" class="node">
<title>Billing</title>
<path fill="none" stroke="#000000" d="M12,-278.5C12,-278.5 232,-278.5 232,-278.5 238,-278.5 244,-284.5 244,-290.5 244,-290.5 244,-417.5 244,-417.5 244,-423.5 238,-429.5 232,-429.5 232,-429.5 12,-429.5 12,-429.5 6,-429.5 0,-423.5 0,-417.5 0,-417.5 0,-290.5 0,-290.5 0,-284.5 6,-278.5 12,-278.5"/>
<text text-anchor="middle" x="122" y="-414.3" font-family="Times,serif" font-size="14.00" fill="#000000">Billing</text>
<polyline fill="none" stroke="#000000" points="0,-406.5 244,-406.5 "/>
<text text-anchor="start" x="8" y="-391.3" font-family="Times,serif" font-size="14.00" fill="#000000">id :bigint</text>
<text text-anchor="start" x="8" y="-376.3" font-family="Times,serif" font-size="14.00" fill="#000000">code :character varying</text>
<text text-anchor="start" x="8" y="-361.3" font-family="Times,serif" font-size="14.00" fill="#000000">payment_method :character varying</text>
<text text-anchor="start" x="8" y="-346.3" font-family="Times,serif" font-size="14.00" fill="#000000">amount :numeric(10,2)</text>
<text text-anchor="start" x="8" y="-331.3" font-family="Times,serif" font-size="14.00" fill="#000000">currency :character varying</text>
<text text-anchor="start" x="8" y="-316.3" font-family="Times,serif" font-size="14.00" fill="#000000">user_id :bigint</text>
<text text-anchor="start" x="8" y="-301.3" font-family="Times,serif" font-size="14.00" fill="#000000">created_at :timestamp without time zone</text>
<text text-anchor="start" x="8" y="-286.3" font-family="Times,serif" font-size="14.00" fill="#000000">updated_at :timestamp without time zone</text>
</g>
<!-- Billing&#45;&gt;Order -->
<g id="edge5" class="edge">
<title>Billing&#45;&gt;Order</title>
<path fill="none" stroke="#90c99e" d="M168.4669,-271.3528C179.0743,-252.4862 190.411,-232.3224 201.2252,-213.0881"/>
<ellipse fill="none" stroke="#90c99e" cx="166.4923" cy="-274.8649" rx="4" ry="4"/>
<polygon fill="#90c99e" stroke="#90c99e" points="201.2517,-213.0409 210.0751,-206.5295 203.7021,-208.6825 206.1525,-204.3241 206.1525,-204.3241 206.1525,-204.3241 203.7021,-208.6825 202.23,-202.1187 201.2517,-213.0409 201.2517,-213.0409"/>
</g>
<!-- Ability -->
<g id="node7" class="node">
<title>Ability</title>
<polygon fill="none" stroke="#000000" points="1346.5,-1195.5 1346.5,-1241.5 1401.5,-1241.5 1401.5,-1195.5 1346.5,-1195.5"/>
<text text-anchor="middle" x="1374" y="-1226.3" font-family="Times,serif" font-size="14.00" fill="#000000">Ability</text>
<polyline fill="none" stroke="#000000" points="1346.5,-1218.5 1401.5,-1218.5 "/>
<text text-anchor="middle" x="1374" y="-1203.3" font-family="Times,serif" font-size="14.00" fill="#000000"> </text>
</g>
<!-- BrandPlan -->
<g id="node8" class="node">
<title>BrandPlan</title>
<path fill="none" stroke="#000000" d="M274,-293.5C274,-293.5 494,-293.5 494,-293.5 500,-293.5 506,-299.5 506,-305.5 506,-305.5 506,-402.5 506,-402.5 506,-408.5 500,-414.5 494,-414.5 494,-414.5 274,-414.5 274,-414.5 268,-414.5 262,-408.5 262,-402.5 262,-402.5 262,-305.5 262,-305.5 262,-299.5 268,-293.5 274,-293.5"/>
<text text-anchor="middle" x="384" y="-399.3" font-family="Times,serif" font-size="14.00" fill="#000000">BrandPlan</text>
<polyline fill="none" stroke="#000000" points="262,-391.5 506,-391.5 "/>
<text text-anchor="start" x="270" y="-376.3" font-family="Times,serif" font-size="14.00" fill="#000000">id :bigint</text>
<text text-anchor="start" x="270" y="-361.3" font-family="Times,serif" font-size="14.00" fill="#000000">name :character varying</text>
<text text-anchor="start" x="270" y="-346.3" font-family="Times,serif" font-size="14.00" fill="#000000">description :character varying</text>
<text text-anchor="start" x="270" y="-331.3" font-family="Times,serif" font-size="14.00" fill="#000000">price :integer</text>
<text text-anchor="start" x="270" y="-316.3" font-family="Times,serif" font-size="14.00" fill="#000000">created_at :timestamp without time zone</text>
<text text-anchor="start" x="270" y="-301.3" font-family="Times,serif" font-size="14.00" fill="#000000">updated_at :timestamp without time zone</text>
</g>
<!-- BrandPlan&#45;&gt;Order -->
<g id="edge6" class="edge">
<title>BrandPlan&#45;&gt;Order</title>
<path fill="none" stroke="#eb14a5" d="M345.9117,-286.2552C333.0535,-263.3852 318.4756,-237.4566 304.7427,-213.0309"/>
<ellipse fill="none" stroke="#eb14a5" cx="347.9629" cy="-289.9035" rx="4" ry="4"/>
<polygon fill="#eb14a5" stroke="#eb14a5" points="304.6271,-212.8252 303.6488,-201.9031 302.1767,-208.4668 299.7262,-204.1085 299.7262,-204.1085 299.7262,-204.1085 302.1767,-208.4668 295.8037,-206.3139 304.6271,-212.8252 304.6271,-212.8252"/>
</g>
<!-- BrandPlan&#45;&gt;User -->
<g id="edge7" class="edge">
<title>BrandPlan&#45;&gt;User</title>
<path fill="none" stroke="#d081a3" d="M489.7613,-288.9927C498.1545,-284.9654 506.6256,-281.2386 515,-278 585.8162,-250.6137 612.7057,-273.036 682,-242 682.0966,-241.9567 682.1933,-241.9134 682.2899,-241.87"/>
<polygon fill="#d081a3" stroke="#d081a3" points="489.6588,-289.0433 478.7,-289.437 485.1758,-291.2575 480.6928,-293.4718 480.6928,-293.4718 480.6928,-293.4718 485.1758,-291.2575 482.6856,-297.5065 489.6588,-289.0433 489.6588,-289.0433"/>
<polygon fill="#d081a3" stroke="#d081a3" points="682.2148,-241.9052 693.1793,-241.735 686.742,-239.7829 691.2692,-237.6605 691.2692,-237.6605 691.2692,-237.6605 686.742,-239.7829 689.3591,-233.586 682.2148,-241.9052 682.2148,-241.9052"/>
</g>
<!-- State -->
<g id="node9" class="node">
<title>State</title>
<path fill="none" stroke="#000000" d="M402,-932.5C402,-932.5 622,-932.5 622,-932.5 628,-932.5 634,-938.5 634,-944.5 634,-944.5 634,-1026.5 634,-1026.5 634,-1032.5 628,-1038.5 622,-1038.5 622,-1038.5 402,-1038.5 402,-1038.5 396,-1038.5 390,-1032.5 390,-1026.5 390,-1026.5 390,-944.5 390,-944.5 390,-938.5 396,-932.5 402,-932.5"/>
<text text-anchor="middle" x="512" y="-1023.3" font-family="Times,serif" font-size="14.00" fill="#000000">State</text>
<polyline fill="none" stroke="#000000" points="390,-1015.5 634,-1015.5 "/>
<text text-anchor="start" x="398" y="-1000.3" font-family="Times,serif" font-size="14.00" fill="#000000">id :bigint</text>
<text text-anchor="start" x="398" y="-985.3" font-family="Times,serif" font-size="14.00" fill="#000000">name :character varying</text>
<text text-anchor="start" x="398" y="-970.3" font-family="Times,serif" font-size="14.00" fill="#000000">country_id :bigint</text>
<text text-anchor="start" x="398" y="-955.3" font-family="Times,serif" font-size="14.00" fill="#000000">created_at :timestamp without time zone</text>
<text text-anchor="start" x="398" y="-940.3" font-family="Times,serif" font-size="14.00" fill="#000000">updated_at :timestamp without time zone</text>
</g>
<!-- Continent -->
<g id="node13" class="node">
<title>Continent</title>
<path fill="none" stroke="#000000" d="M327,-707C327,-707 547,-707 547,-707 553,-707 559,-713 559,-719 559,-719 559,-786 559,-786 559,-792 553,-798 547,-798 547,-798 327,-798 327,-798 321,-798 315,-792 315,-786 315,-786 315,-719 315,-719 315,-713 321,-707 327,-707"/>
<text text-anchor="middle" x="437" y="-782.8" font-family="Times,serif" font-size="14.00" fill="#000000">Continent</text>
<polyline fill="none" stroke="#000000" points="315,-775 559,-775 "/>
<text text-anchor="start" x="323" y="-759.8" font-family="Times,serif" font-size="14.00" fill="#000000">id :bigint</text>
<text text-anchor="start" x="323" y="-744.8" font-family="Times,serif" font-size="14.00" fill="#000000">name :character varying</text>
<text text-anchor="start" x="323" y="-729.8" font-family="Times,serif" font-size="14.00" fill="#000000">created_at :timestamp without time zone</text>
<text text-anchor="start" x="323" y="-714.8" font-family="Times,serif" font-size="14.00" fill="#000000">updated_at :timestamp without time zone</text>
</g>
<!-- State&#45;&gt;Continent -->
<g id="edge8" class="edge">
<title>State&#45;&gt;Continent</title>
<path fill="none" stroke="#9aa619" d="M486.3804,-924.5932C473.5086,-887.8703 458.6645,-841.5206 448.4895,-806.177"/>
<ellipse fill="none" stroke="#9aa619" cx="487.784" cy="-928.5656" rx="4" ry="4"/>
<ellipse fill="#9aa619" stroke="#9aa619" cx="447.3587" cy="-802.203" rx="4" ry="4"/>
</g>
<!-- City -->
<g id="node14" class="node">
<title>City</title>
<path fill="none" stroke="#000000" d="M536,-301C536,-301 756,-301 756,-301 762,-301 768,-307 768,-313 768,-313 768,-395 768,-395 768,-401 762,-407 756,-407 756,-407 536,-407 536,-407 530,-407 524,-401 524,-395 524,-395 524,-313 524,-313 524,-307 530,-301 536,-301"/>
<text text-anchor="middle" x="646" y="-391.8" font-family="Times,serif" font-size="14.00" fill="#000000">City</text>
<polyline fill="none" stroke="#000000" points="524,-384 768,-384 "/>
<text text-anchor="start" x="532" y="-368.8" font-family="Times,serif" font-size="14.00" fill="#000000">id :bigint</text>
<text text-anchor="start" x="532" y="-353.8" font-family="Times,serif" font-size="14.00" fill="#000000">name :character varying</text>
<text text-anchor="start" x="532" y="-338.8" font-family="Times,serif" font-size="14.00" fill="#000000">state_id :bigint</text>
<text text-anchor="start" x="532" y="-323.8" font-family="Times,serif" font-size="14.00" fill="#000000">created_at :timestamp without time zone</text>
<text text-anchor="start" x="532" y="-308.8" font-family="Times,serif" font-size="14.00" fill="#000000">updated_at :timestamp without time zone</text>
</g>
<!-- State&#45;&gt;City -->
<g id="edge9" class="edge">
<title>State&#45;&gt;City</title>
<path fill="none" stroke="#dc0d41" d="M549.3971,-925.5404C562.6732,-902.7368 577.0285,-876.1795 588,-851 631.4022,-751.3924 645.3592,-725.3709 662,-618 672.5542,-549.9012 665.235,-470.9159 657.3713,-417.2125"/>
<ellipse fill="none" stroke="#dc0d41" cx="547.3416" cy="-929.0417" rx="4" ry="4"/>
<polygon fill="#dc0d41" stroke="#dc0d41" points="657.3454,-417.0411 660.298,-406.4802 656.5971,-412.0974 655.8487,-407.1538 655.8487,-407.1538 655.8487,-407.1538 656.5971,-412.0974 651.3994,-407.8273 657.3454,-417.0411 657.3454,-417.0411"/>
</g>
<!-- ProductType -->
<g id="node10" class="node">
<title>ProductType</title>
<path fill="none" stroke="#000000" d="M1209,-940C1209,-940 1429,-940 1429,-940 1435,-940 1441,-946 1441,-952 1441,-952 1441,-1019 1441,-1019 1441,-1025 1435,-1031 1429,-1031 1429,-1031 1209,-1031 1209,-1031 1203,-1031 1197,-1025 1197,-1019 1197,-1019 1197,-952 1197,-952 1197,-946 1203,-940 1209,-940"/>
<text text-anchor="middle" x="1319" y="-1015.8" font-family="Times,serif" font-size="14.00" fill="#000000">ProductType</text>
<polyline fill="none" stroke="#000000" points="1197,-1008 1441,-1008 "/>
<text text-anchor="start" x="1205" y="-992.8" font-family="Times,serif" font-size="14.00" fill="#000000">id :bigint</text>
<text text-anchor="start" x="1205" y="-977.8" font-family="Times,serif" font-size="14.00" fill="#000000">name :character varying</text>
<text text-anchor="start" x="1205" y="-962.8" font-family="Times,serif" font-size="14.00" fill="#000000">created_at :timestamp without time zone</text>
<text text-anchor="start" x="1205" y="-947.8" font-family="Times,serif" font-size="14.00" fill="#000000">updated_at :timestamp without time zone</text>
</g>
<!-- ProductType&#45;&gt;Product -->
<g id="edge10" class="edge">
<title>ProductType&#45;&gt;Product</title>
<path fill="none" stroke="#2afdde" d="M1285.0197,-932.7173C1270.9771,-910.9044 1254.1635,-884.7872 1237.7517,-859.2943"/>
<ellipse fill="none" stroke="#2afdde" cx="1287.3786" cy="-936.3814" rx="4" ry="4"/>
<polygon fill="#2afdde" stroke="#2afdde" points="1237.619,-859.0881 1235.9896,-848.244 1234.9125,-854.884 1232.2059,-850.6799 1232.2059,-850.6799 1232.2059,-850.6799 1234.9125,-854.884 1228.4222,-853.1158 1237.619,-859.0881 1237.619,-859.0881"/>
</g>
<!-- ProjectType -->
<g id="node12" class="node">
<title>ProjectType</title>
<path fill="none" stroke="#000000" d="M834,-1173C834,-1173 1054,-1173 1054,-1173 1060,-1173 1066,-1179 1066,-1185 1066,-1185 1066,-1252 1066,-1252 1066,-1258 1060,-1264 1054,-1264 1054,-1264 834,-1264 834,-1264 828,-1264 822,-1258 822,-1252 822,-1252 822,-1185 822,-1185 822,-1179 828,-1173 834,-1173"/>
<text text-anchor="middle" x="944" y="-1248.8" font-family="Times,serif" font-size="14.00" fill="#000000">ProjectType</text>
<polyline fill="none" stroke="#000000" points="822,-1241 1066,-1241 "/>
<text text-anchor="start" x="830" y="-1225.8" font-family="Times,serif" font-size="14.00" fill="#000000">id :bigint</text>
<text text-anchor="start" x="830" y="-1210.8" font-family="Times,serif" font-size="14.00" fill="#000000">category :character varying</text>
<text text-anchor="start" x="830" y="-1195.8" font-family="Times,serif" font-size="14.00" fill="#000000">created_at :timestamp without time zone</text>
<text text-anchor="start" x="830" y="-1180.8" font-family="Times,serif" font-size="14.00" fill="#000000">updated_at :timestamp without time zone</text>
</g>
<!-- ProjectType&#45;&gt;Project -->
<g id="edge11" class="edge">
<title>ProjectType&#45;&gt;Project</title>
<path fill="none" stroke="#bca7d1" d="M952.5311,-1164.7768C955.8948,-1143.5947 959.8854,-1118.4647 963.7982,-1093.8248"/>
<ellipse fill="none" stroke="#bca7d1" cx="951.8932" cy="-1168.7942" rx="4" ry="4"/>
<polygon fill="#bca7d1" stroke="#bca7d1" points="963.8408,-1093.5561 969.8535,-1084.3857 964.625,-1088.618 965.4092,-1083.6799 965.4092,-1083.6799 965.4092,-1083.6799 964.625,-1088.618 960.9649,-1082.9741 963.8408,-1093.5561 963.8408,-1093.5561"/>
</g>
<!-- ProjectType&#45;&gt;Product -->
<g id="edge12" class="edge">
<title>ProjectType&#45;&gt;Product</title>
<path fill="none" stroke="#e6ae83" d="M1011.5822,-1168.0333C1055.3182,-1134.7607 1105.3277,-1095.3101 1112,-1084 1151.7239,-1016.6641 1165.4885,-929.0955 1169.5813,-860.8712"/>
<ellipse fill="none" stroke="#e6ae83" cx="1008.3666" cy="-1170.4747" rx="4" ry="4"/>
<polygon fill="#e6ae83" stroke="#e6ae83" points="1169.6007,-860.5083 1174.6308,-850.7642 1169.869,-855.5155 1170.1373,-850.5227 1170.1373,-850.5227 1170.1373,-850.5227 1169.869,-855.5155 1165.6438,-850.2812 1169.6007,-860.5083 1169.6007,-860.5083"/>
</g>
<!-- Continent&#45;&gt;State -->
<g id="edge14" class="edge">
<title>Continent&#45;&gt;State</title>
<path fill="none" stroke="#9a2fba" d="M460.6442,-807.8033C472.8749,-842.294 487.2694,-886.7778 497.8259,-922.609"/>
<polygon fill="#9a2fba" stroke="#9a2fba" points="460.632,-807.7689 461.4929,-796.8369 458.9444,-803.0623 457.2569,-798.3557 457.2569,-798.3557 457.2569,-798.3557 458.9444,-803.0623 453.0209,-799.8745 460.632,-807.7689 460.632,-807.7689"/>
<polygon fill="#9a2fba" stroke="#9a2fba" points="497.8628,-922.7358 496.3378,-933.5952 499.2606,-927.5365 500.6584,-932.3371 500.6584,-932.3371 500.6584,-932.3371 499.2606,-927.5365 504.979,-931.0791 497.8628,-922.7358 497.8628,-922.7358"/>
</g>
<!-- Continent&#45;&gt;City -->
<g id="edge15" class="edge">
<title>Continent&#45;&gt;City</title>
<path fill="none" stroke="#995f47" d="M408.911,-697.6204C381.4124,-635.3427 350.285,-533.657 400,-466 431.713,-422.8418 465.9792,-451.571 515,-430 527.2005,-424.6313 539.7061,-418.4086 551.9176,-411.8805"/>
<polygon fill="#995f47" stroke="#995f47" points="408.9829,-697.7794 409.0061,-708.7453 411.0444,-702.3347 413.1058,-706.8899 413.1058,-706.8899 413.1058,-706.8899 411.0444,-702.3347 417.2056,-705.0346 408.9829,-697.7794 408.9829,-697.7794"/>
<polygon fill="#995f47" stroke="#995f47" points="551.9625,-411.8562 562.8976,-411.0349 556.3557,-409.4686 560.7488,-407.081 560.7488,-407.081 560.7488,-407.081 556.3557,-409.4686 558.6,-403.1272 551.9625,-411.8562 551.9625,-411.8562"/>
</g>
<!-- Country -->
<g id="node15" class="node">
<title>Country</title>
<path fill="none" stroke="#000000" d="M421,-489C421,-489 641,-489 641,-489 647,-489 653,-495 653,-501 653,-501 653,-583 653,-583 653,-589 647,-595 641,-595 641,-595 421,-595 421,-595 415,-595 409,-589 409,-583 409,-583 409,-501 409,-501 409,-495 415,-489 421,-489"/>
<text text-anchor="middle" x="531" y="-579.8" font-family="Times,serif" font-size="14.00" fill="#000000">Country</text>
<polyline fill="none" stroke="#000000" points="409,-572 653,-572 "/>
<text text-anchor="start" x="417" y="-556.8" font-family="Times,serif" font-size="14.00" fill="#000000">id :bigint</text>
<text text-anchor="start" x="417" y="-541.8" font-family="Times,serif" font-size="14.00" fill="#000000">name :character varying</text>
<text text-anchor="start" x="417" y="-526.8" font-family="Times,serif" font-size="14.00" fill="#000000">continent_id :bigint</text>
<text text-anchor="start" x="417" y="-511.8" font-family="Times,serif" font-size="14.00" fill="#000000">created_at :timestamp without time zone</text>
<text text-anchor="start" x="417" y="-496.8" font-family="Times,serif" font-size="14.00" fill="#000000">updated_at :timestamp without time zone</text>
</g>
<!-- Continent&#45;&gt;Country -->
<g id="edge13" class="edge">
<title>Continent&#45;&gt;Country</title>
<path fill="none" stroke="#8997c3" d="M460.7482,-699.3192C473.6695,-670.3837 489.7251,-634.4294 503.2243,-604.1998"/>
<ellipse fill="none" stroke="#8997c3" cx="459.0276" cy="-703.1723" rx="4" ry="4"/>
<polygon fill="#8997c3" stroke="#8997c3" points="503.2478,-604.1471 511.4343,-596.851 505.2866,-599.5816 507.3254,-595.0161 507.3254,-595.0161 507.3254,-595.0161 505.2866,-599.5816 503.2164,-593.1812 503.2478,-604.1471 503.2478,-604.1471"/>
</g>
<!-- City&#45;&gt;User -->
<g id="edge16" class="edge">
<title>City&#45;&gt;User</title>
<path fill="none" stroke="#87d7fc" d="M697.5901,-294.4926C709.6607,-280.5695 722.9808,-265.2054 736.5551,-249.5478"/>
<ellipse fill="none" stroke="#87d7fc" cx="694.7099" cy="-297.8148" rx="4" ry="4"/>
<polygon fill="#87d7fc" stroke="#87d7fc" points="736.6844,-249.3986 746.6351,-244.7905 739.9597,-245.6207 743.235,-241.8428 743.235,-241.8428 743.235,-241.8428 739.9597,-245.6207 739.8349,-238.895 736.6844,-249.3986 736.6844,-249.3986"/>
</g>
<!-- Company -->
<g id="node22" class="node">
<title>Company</title>
<ellipse fill="none" stroke="#000000" cx="628" cy="-121" rx="45.4919" ry="18"/>
<text text-anchor="middle" x="628" y="-117.3" font-family="Times,serif" font-size="14.00" fill="#000000">Company</text>
</g>
<!-- City&#45;&gt;Company -->
<g id="edge17" class="edge">
<title>City&#45;&gt;Company</title>
<path fill="none" stroke="#9ef2ba" d="M641.2708,-292.7829C637.6841,-246.3554 632.9194,-184.6784 630.1834,-149.2627"/>
<ellipse fill="none" stroke="#9ef2ba" cx="641.5849" cy="-296.849" rx="4" ry="4"/>
<polygon fill="#9ef2ba" stroke="#9ef2ba" points="630.1733,-149.131 633.8896,-138.8141 629.7881,-144.1459 629.403,-139.1607 629.403,-139.1607 629.403,-139.1607 629.7881,-144.1459 624.9163,-139.5074 630.1733,-149.131 630.1733,-149.131"/>
</g>
<!-- Country&#45;&gt;State -->
<g id="edge18" class="edge">
<title>Country&#45;&gt;State</title>
<path fill="none" stroke="#abd6c5" d="M555.0857,-603.1134C560.4194,-619.3933 565.2882,-637.1464 568,-654 581.909,-740.4437 585.1597,-765.1424 568,-851 563.1202,-875.4157 553.7132,-900.9414 543.9821,-923.1135"/>
<ellipse fill="none" stroke="#abd6c5" cx="553.7142" cy="-599.041" rx="4" ry="4"/>
<polygon fill="#abd6c5" stroke="#abd6c5" points="543.908,-923.2783 535.7005,-930.5507 541.856,-927.8379 539.8041,-932.3975 539.8041,-932.3975 539.8041,-932.3975 541.856,-927.8379 543.9077,-934.2442 543.908,-923.2783 543.908,-923.2783"/>
</g>
<!-- Country&#45;&gt;City -->
<g id="edge19" class="edge">
<title>Country&#45;&gt;City</title>
<path fill="none" stroke="#1791d3" d="M568.7164,-480.3418C581.3439,-459.6987 595.4209,-436.6858 608.065,-416.0155"/>
<polygon fill="#1791d3" stroke="#1791d3" points="568.7115,-480.35 559.6545,-486.5324 566.1024,-484.6153 563.4933,-488.8806 563.4933,-488.8806 563.4933,-488.8806 566.1024,-484.6153 567.332,-491.2288 568.7115,-480.35 568.7115,-480.35"/>
<polygon fill="#1791d3" stroke="#1791d3" points="608.1695,-415.8446 617.2265,-409.6622 610.7786,-411.5793 613.3877,-407.314 613.3877,-407.314 613.3877,-407.314 610.7786,-411.5793 609.549,-404.9658 608.1695,-415.8446 608.1695,-415.8446"/>
</g>
<!-- Brand -->
<g id="node16" class="node">
<title>Brand</title>
<path fill="none" stroke="#000000" d="M1432,-1120.5C1432,-1120.5 1652,-1120.5 1652,-1120.5 1658,-1120.5 1664,-1126.5 1664,-1132.5 1664,-1132.5 1664,-1304.5 1664,-1304.5 1664,-1310.5 1658,-1316.5 1652,-1316.5 1652,-1316.5 1432,-1316.5 1432,-1316.5 1426,-1316.5 1420,-1310.5 1420,-1304.5 1420,-1304.5 1420,-1132.5 1420,-1132.5 1420,-1126.5 1426,-1120.5 1432,-1120.5"/>
<text text-anchor="middle" x="1542" y="-1301.3" font-family="Times,serif" font-size="14.00" fill="#000000">Brand</text>
<polyline fill="none" stroke="#000000" points="1420,-1293.5 1664,-1293.5 "/>
<text text-anchor="start" x="1428" y="-1278.3" font-family="Times,serif" font-size="14.00" fill="#000000">id :bigint</text>
<text text-anchor="start" x="1428" y="-1263.3" font-family="Times,serif" font-size="14.00" fill="#000000">name :character varying</text>
<text text-anchor="start" x="1428" y="-1248.3" font-family="Times,serif" font-size="14.00" fill="#000000">description :character varying</text>
<text text-anchor="start" x="1428" y="-1233.3" font-family="Times,serif" font-size="14.00" fill="#000000">contact :character varying</text>
<text text-anchor="start" x="1428" y="-1218.3" font-family="Times,serif" font-size="14.00" fill="#000000">email :character varying</text>
<text text-anchor="start" x="1428" y="-1203.3" font-family="Times,serif" font-size="14.00" fill="#000000">phone :character varying</text>
<text text-anchor="start" x="1428" y="-1188.3" font-family="Times,serif" font-size="14.00" fill="#000000">address :character varying</text>
<text text-anchor="start" x="1428" y="-1173.3" font-family="Times,serif" font-size="14.00" fill="#000000">city_id :bigint</text>
<text text-anchor="start" x="1428" y="-1158.3" font-family="Times,serif" font-size="14.00" fill="#000000">user_id :bigint</text>
<text text-anchor="start" x="1428" y="-1143.3" font-family="Times,serif" font-size="14.00" fill="#000000">created_at :timestamp without time zone</text>
<text text-anchor="start" x="1428" y="-1128.3" font-family="Times,serif" font-size="14.00" fill="#000000">updated_at :timestamp without time zone</text>
</g>
<!-- Project&#45;&gt;Specification -->
<g id="edge20" class="edge">
<title>Project&#45;&gt;Specification</title>
<path fill="none" stroke="#78c755" d="M993.2389,-879.1066C1003.7128,-797.8009 1019.9313,-693.229 1038,-654 1046.2386,-636.1132 1058.0775,-618.7391 1070.5619,-603.2226"/>
<ellipse fill="none" stroke="#78c755" cx="992.687" cy="-883.4298" rx="4" ry="4"/>
<polygon fill="#78c755" stroke="#78c755" points="1070.7564,-602.9876 1080.5999,-598.1547 1073.9451,-599.1363 1077.1337,-595.2849 1077.1337,-595.2849 1077.1337,-595.2849 1073.9451,-599.1363 1073.6674,-592.4152 1070.7564,-602.9876 1070.7564,-602.9876"/>
</g>
<!-- Project&#45;&gt;Role -->
<g id="edge23" class="edge">
<title>Project&#45;&gt;Role</title>
<path fill="none" stroke="#5eb846" d="M981,-878.9262C981,-749.7152 981,-535.5541 981,-424.9601"/>
<ellipse fill="none" stroke="#5eb846" cx="981" cy="-883.1748" rx="4" ry="4"/>
<polygon fill="#5eb846" stroke="#5eb846" points="981.0001,-424.9109 985.5,-414.9109 981,-419.9109 981,-414.9109 981,-414.9109 981,-414.9109 981,-419.9109 976.5,-414.911 981.0001,-424.9109 981.0001,-424.9109"/>
</g>
<!-- Event -->
<g id="node18" class="node">
<title>Event</title>
<path fill="none" stroke="#000000" d="M721,-466.5C721,-466.5 941,-466.5 941,-466.5 947,-466.5 953,-472.5 953,-478.5 953,-478.5 953,-605.5 953,-605.5 953,-611.5 947,-617.5 941,-617.5 941,-617.5 721,-617.5 721,-617.5 715,-617.5 709,-611.5 709,-605.5 709,-605.5 709,-478.5 709,-478.5 709,-472.5 715,-466.5 721,-466.5"/>
<text text-anchor="middle" x="831" y="-602.3" font-family="Times,serif" font-size="14.00" fill="#000000">Event</text>
<polyline fill="none" stroke="#000000" points="709,-594.5 953,-594.5 "/>
<text text-anchor="start" x="717" y="-579.3" font-family="Times,serif" font-size="14.00" fill="#000000">id :bigint</text>
<text text-anchor="start" x="717" y="-564.3" font-family="Times,serif" font-size="14.00" fill="#000000">title :character varying</text>
<text text-anchor="start" x="717" y="-549.3" font-family="Times,serif" font-size="14.00" fill="#000000">description :character varying</text>
<text text-anchor="start" x="717" y="-534.3" font-family="Times,serif" font-size="14.00" fill="#000000">start :date</text>
<text text-anchor="start" x="717" y="-519.3" font-family="Times,serif" font-size="14.00" fill="#000000">end :date</text>
<text text-anchor="start" x="717" y="-504.3" font-family="Times,serif" font-size="14.00" fill="#000000">project_id :bigint</text>
<text text-anchor="start" x="717" y="-489.3" font-family="Times,serif" font-size="14.00" fill="#000000">created_at :timestamp without time zone</text>
<text text-anchor="start" x="717" y="-474.3" font-family="Times,serif" font-size="14.00" fill="#000000">updated_at :timestamp without time zone</text>
</g>
<!-- Project&#45;&gt;Event -->
<g id="edge22" class="edge">
<title>Project&#45;&gt;Event</title>
<path fill="none" stroke="#49bff6" d="M945.1909,-879.6244C919.0517,-802.3396 884.0801,-698.9401 859.7543,-627.0168"/>
<ellipse fill="none" stroke="#49bff6" cx="946.5216" cy="-883.559" rx="4" ry="4"/>
<polygon fill="#49bff6" stroke="#49bff6" points="859.7478,-626.9976 860.8067,-616.0829 858.1459,-622.2611 856.5439,-617.5247 856.5439,-617.5247 856.5439,-617.5247 858.1459,-622.2611 852.2811,-618.9665 859.7478,-626.9976 859.7478,-626.9976"/>
</g>
<!-- Project&#45;&gt;Product -->
<g id="edge21" class="edge">
<title>Project&#45;&gt;Product</title>
<path fill="none" stroke="#604383" d="M1066.665,-879.3301C1072.2297,-872.4334 1077.8337,-865.488 1083.3982,-858.5916"/>
<polygon fill="#604383" stroke="#604383" points="1066.4636,-879.5798 1056.6819,-884.5365 1063.3238,-883.471 1060.184,-887.3623 1060.184,-887.3623 1060.184,-887.3623 1063.3238,-883.471 1063.6862,-890.1881 1066.4636,-879.5798 1066.4636,-879.5798"/>
<polygon fill="#604383" stroke="#604383" points="1083.6279,-858.3069 1093.4096,-853.3501 1086.7677,-854.4156 1089.9074,-850.5243 1089.9074,-850.5243 1089.9074,-850.5243 1086.7677,-854.4156 1086.4053,-847.6985 1083.6279,-858.3069 1083.6279,-858.3069"/>
</g>
<!-- Event&#45;&gt;Role -->
<g id="edge25" class="edge">
<title>Event&#45;&gt;Role</title>
<path fill="none" stroke="#c3fc08" d="M896.519,-459.8828C906.4355,-447.4542 916.5766,-434.744 926.234,-422.64"/>
<ellipse fill="none" stroke="#c3fc08" cx="893.8571" cy="-463.2191" rx="4" ry="4"/>
<polygon fill="#c3fc08" stroke="#c3fc08" points="926.2664,-422.5995 936.0208,-417.5892 929.3848,-418.691 932.5032,-414.7826 932.5032,-414.7826 932.5032,-414.7826 929.3848,-418.691 928.9856,-411.9761 926.2664,-422.5995 926.2664,-422.5995"/>
</g>
<!-- Event&#45;&gt;User -->
<g id="edge24" class="edge">
<title>Event&#45;&gt;User</title>
<path fill="none" stroke="#2a4fa0" d="M834.3902,-458.0431C836.7953,-398.4823 840.0682,-317.4275 842.8018,-249.7318"/>
<ellipse fill="none" stroke="#2a4fa0" cx="834.2203" cy="-462.2507" rx="4" ry="4"/>
<ellipse fill="#2a4fa0" stroke="#2a4fa0" cx="842.971" cy="-245.5416" rx="4" ry="4"/>
</g>
<!-- Gender -->
<g id="node19" class="node">
<title>Gender</title>
<path fill="none" stroke="#000000" d="M1133,-308.5C1133,-308.5 1353,-308.5 1353,-308.5 1359,-308.5 1365,-314.5 1365,-320.5 1365,-320.5 1365,-387.5 1365,-387.5 1365,-393.5 1359,-399.5 1353,-399.5 1353,-399.5 1133,-399.5 1133,-399.5 1127,-399.5 1121,-393.5 1121,-387.5 1121,-387.5 1121,-320.5 1121,-320.5 1121,-314.5 1127,-308.5 1133,-308.5"/>
<text text-anchor="middle" x="1243" y="-384.3" font-family="Times,serif" font-size="14.00" fill="#000000">Gender</text>
<polyline fill="none" stroke="#000000" points="1121,-376.5 1365,-376.5 "/>
<text text-anchor="start" x="1129" y="-361.3" font-family="Times,serif" font-size="14.00" fill="#000000">id :bigint</text>
<text text-anchor="start" x="1129" y="-346.3" font-family="Times,serif" font-size="14.00" fill="#000000">name :character varying</text>
<text text-anchor="start" x="1129" y="-331.3" font-family="Times,serif" font-size="14.00" fill="#000000">created_at :timestamp without time zone</text>
<text text-anchor="start" x="1129" y="-316.3" font-family="Times,serif" font-size="14.00" fill="#000000">updated_at :timestamp without time zone</text>
</g>
<!-- Gender&#45;&gt;User -->
<g id="edge26" class="edge">
<title>Gender&#45;&gt;User</title>
<path fill="none" stroke="#24efc4" d="M1158.3446,-304.064C1115.9958,-279.0836 1063.2295,-247.9582 1013.2875,-218.4987"/>
<ellipse fill="none" stroke="#24efc4" cx="1161.9867" cy="-306.2124" rx="4" ry="4"/>
<polygon fill="#24efc4" stroke="#24efc4" points="1013.2639,-218.4848 1006.9371,-209.5282 1008.9573,-215.9445 1004.6508,-213.4041 1004.6508,-213.4041 1004.6508,-213.4041 1008.9573,-215.9445 1002.3644,-217.28 1013.2639,-218.4848 1013.2639,-218.4848"/>
</g>
<!-- Product&#45;&gt;Specification -->
<g id="edge27" class="edge">
<title>Product&#45;&gt;Specification</title>
<path fill="none" stroke="#4a3d19" d="M1149.8125,-646.2115C1147.292,-632.2489 1144.7758,-618.3108 1142.4415,-605.38"/>
<ellipse fill="none" stroke="#4a3d19" cx="1150.5688" cy="-650.4009" rx="4" ry="4"/>
<polygon fill="#4a3d19" stroke="#4a3d19" points="1142.3884,-605.0854 1145.0403,-594.445 1141.5001,-600.1649 1140.6118,-595.2445 1140.6118,-595.2445 1140.6118,-595.2445 1141.5001,-600.1649 1136.1834,-596.0439 1142.3884,-605.0854 1142.3884,-605.0854"/>
</g>
<!-- ApplicationRecord -->
<g id="node21" class="node">
<title>ApplicationRecord</title>
<ellipse fill="none" stroke="#000000" cx="1759" cy="-1218.5" rx="77.1866" ry="18"/>
<text text-anchor="middle" x="1759" y="-1214.8" font-family="Times,serif" font-size="14.00" fill="#000000">ApplicationRecord</text>
</g>
</g>
</svg>
