<?xml version="1.0" encoding="UTF-8" standalone="no"?>
<!DOCTYPE svg PUBLIC "-//W3C//DTD SVG 1.1//EN"
 "http://www.w3.org/Graphics/SVG/1.1/DTD/svg11.dtd">
<!-- Generated by graphviz version 2.40.1 (20161225.0304)
 -->
<!-- Title: models_diagram Pages: 1 -->
<svg width="877pt" height="446pt"
 viewBox="0.00 0.00 877.44 446.00" xmlns="http://www.w3.org/2000/svg" xmlns:xlink="http://www.w3.org/1999/xlink">
<g id="graph0" class="graph" transform="scale(1 1) rotate(0) translate(4 442)">
<title>models_diagram</title>
<polygon fill="transparent" stroke="transparent" points="-4,4 -4,-442 873.44,-442 873.44,4 -4,4"/>
<!-- _diagram_info -->
<g id="node1" class="node">
<title>_diagram_info</title>
<text text-anchor="start" x="71.0969" y="-423.6" font-family="Times,serif" font-size="13.00" fill="#000000">Models diagram</text>
<text text-anchor="start" x="71.0969" y="-409.6" font-family="Times,serif" font-size="13.00" fill="#000000">Date: Jan 25 2019 &#45; 01:07</text>
<text text-anchor="start" x="71.0969" y="-395.6" font-family="Times,serif" font-size="13.00" fill="#000000">Migration version: 20190124224331</text>
<text text-anchor="start" x="71.0969" y="-381.6" font-family="Times,serif" font-size="13.00" fill="#000000">Generated by RailRoady 1.5.3</text>
<text text-anchor="start" x="71.0969" y="-367.6" font-family="Times,serif" font-size="13.00" fill="#000000">http://railroady.prestonlee.com</text>
</g>
<!-- Specification -->
<g id="node2" class="node">
<title>Specification</title>
<ellipse fill="none" stroke="#000000" cx="448.0969" cy="-162" rx="57.3905" ry="18"/>
<text text-anchor="middle" x="448.0969" y="-158.3" font-family="Times,serif" font-size="14.00" fill="#000000">Specification</text>
</g>
<!-- Role -->
<g id="node3" class="node">
<title>Role</title>
<ellipse fill="none" stroke="#000000" cx="359.0969" cy="-90" rx="27.0966" ry="18"/>
<text text-anchor="middle" x="359.0969" y="-86.3" font-family="Times,serif" font-size="14.00" fill="#000000">Role</text>
</g>
<!-- Specification&#45;&gt;Role -->
<g id="edge1" class="edge">
<title>Specification&#45;&gt;Role</title>
<path fill="none" stroke="#94b61c" d="M420.6102,-139.7636C409.0181,-130.3857 395.6128,-119.541 384.281,-110.3737"/>
<ellipse fill="none" stroke="#94b61c" cx="423.8953" cy="-142.4212" rx="4" ry="4"/>
<polygon fill="#94b61c" stroke="#94b61c" points="384.2262,-110.3294 379.282,-100.5413 380.339,-107.1846 376.4517,-104.0399 376.4517,-104.0399 376.4517,-104.0399 380.339,-107.1846 373.6214,-107.5384 384.2262,-110.3294 384.2262,-110.3294"/>
</g>
<!-- User -->
<g id="node11" class="node">
<title>User</title>
<ellipse fill="none" stroke="#000000" cx="312.0969" cy="-18" rx="27.0966" ry="18"/>
<text text-anchor="middle" x="312.0969" y="-14.3" font-family="Times,serif" font-size="14.00" fill="#000000">User</text>
</g>
<!-- Role&#45;&gt;User -->
<g id="edge2" class="edge">
<title>Role&#45;&gt;User</title>
<path fill="none" stroke="#625995" d="M342.7096,-64.8961C338.1059,-57.8436 333.1001,-50.1751 328.4957,-43.1216"/>
<polygon fill="#625995" stroke="#625995" points="342.7297,-64.927 344.4278,-75.7606 345.4629,-69.1139 348.196,-73.3008 348.196,-73.3008 348.196,-73.3008 345.4629,-69.1139 351.9642,-70.841 342.7297,-64.927 342.7297,-64.927"/>
<polygon fill="#625995" stroke="#625995" points="328.4049,-42.9825 326.7069,-32.1488 325.6718,-38.7956 322.9386,-34.6087 322.9386,-34.6087 322.9386,-34.6087 325.6718,-38.7956 319.1704,-37.0685 328.4049,-42.9825 328.4049,-42.9825"/>
</g>
<!-- Order -->
<g id="node4" class="node">
<title>Order</title>
<ellipse fill="none" stroke="#000000" cx="93.0969" cy="-18" rx="31.3957" ry="18"/>
<text text-anchor="middle" x="93.0969" y="-14.3" font-family="Times,serif" font-size="14.00" fill="#000000">Order</text>
</g>
<!-- ProjectTraffic -->
<g id="node5" class="node">
<title>ProjectTraffic</title>
<ellipse fill="none" stroke="#000000" cx="481.0969" cy="-399" rx="59.5901" ry="18"/>
<text text-anchor="middle" x="481.0969" y="-395.3" font-family="Times,serif" font-size="14.00" fill="#000000">ProjectTraffic</text>
</g>
<!-- Project -->
<g id="node17" class="node">
<title>Project</title>
<ellipse fill="none" stroke="#000000" cx="363.0969" cy="-306" rx="35.9954" ry="18"/>
<text text-anchor="middle" x="363.0969" y="-302.3" font-family="Times,serif" font-size="14.00" fill="#000000">Project</text>
</g>
<!-- ProjectTraffic&#45;&gt;Project -->
<g id="edge3" class="edge">
<title>ProjectTraffic&#45;&gt;Project</title>
<path fill="none" stroke="#58c6f7" d="M453.2297,-377.0369C434.2142,-362.0501 409.1523,-342.2979 390.2834,-327.4267"/>
<ellipse fill="none" stroke="#58c6f7" cx="456.5864" cy="-379.6824" rx="4" ry="4"/>
<polygon fill="#58c6f7" stroke="#58c6f7" points="390.2072,-327.3666 385.1387,-317.6423 386.2802,-324.2716 382.3532,-321.1766 382.3532,-321.1766 382.3532,-321.1766 386.2802,-324.2716 379.5677,-324.7109 390.2072,-327.3666 390.2072,-327.3666"/>
</g>
<!-- Product -->
<g id="node20" class="node">
<title>Product</title>
<ellipse fill="none" stroke="#000000" cx="467.0969" cy="-234" rx="38.1938" ry="18"/>
<text text-anchor="middle" x="467.0969" y="-230.3" font-family="Times,serif" font-size="14.00" fill="#000000">Product</text>
</g>
<!-- ProjectTraffic&#45;&gt;Product -->
<g id="edge4" class="edge">
<title>ProjectTraffic&#45;&gt;Product</title>
<path fill="none" stroke="#26fe44" d="M478.8637,-372.6804C476.303,-342.5002 472.121,-293.213 469.4936,-262.2466"/>
<ellipse fill="none" stroke="#26fe44" cx="479.2069" cy="-376.726" rx="4" ry="4"/>
<polygon fill="#26fe44" stroke="#26fe44" points="469.4798,-262.083 473.1181,-251.7383 469.057,-257.1009 468.6342,-252.1188 468.6342,-252.1188 468.6342,-252.1188 469.057,-257.1009 464.1503,-252.4992 469.4798,-262.083 469.4798,-262.083"/>
</g>
<!-- Billing -->
<g id="node6" class="node">
<title>Billing</title>
<ellipse fill="none" stroke="#000000" cx="35.0969" cy="-90" rx="35.194" ry="18"/>
<text text-anchor="middle" x="35.0969" y="-86.3" font-family="Times,serif" font-size="14.00" fill="#000000">Billing</text>
</g>
<!-- Billing&#45;&gt;Order -->
<g id="edge5" class="edge">
<title>Billing&#45;&gt;Order</title>
<path fill="none" stroke="#3ee035" d="M53.6216,-67.0038C59.9183,-59.1872 66.9762,-50.4257 73.3638,-42.4963"/>
<ellipse fill="none" stroke="#3ee035" cx="51.0584" cy="-70.1858" rx="4" ry="4"/>
<polygon fill="#3ee035" stroke="#3ee035" points="73.4444,-42.3962 83.2221,-37.4317 76.581,-38.5024 79.7177,-34.6087 79.7177,-34.6087 79.7177,-34.6087 76.581,-38.5024 76.2133,-31.7857 73.4444,-42.3962 73.4444,-42.3962"/>
</g>
<!-- Ability -->
<g id="node7" class="node">
<title>Ability</title>
<polygon fill="none" stroke="#000000" points="613.5969,-417 558.5969,-417 558.5969,-381 613.5969,-381 613.5969,-417"/>
<text text-anchor="middle" x="586.0969" y="-395.3" font-family="Times,serif" font-size="14.00" fill="#000000">Ability</text>
</g>
<!-- BrandPlan -->
<g id="node8" class="node">
<title>BrandPlan</title>
<ellipse fill="none" stroke="#000000" cx="136.0969" cy="-90" rx="48.1917" ry="18"/>
<text text-anchor="middle" x="136.0969" y="-86.3" font-family="Times,serif" font-size="14.00" fill="#000000">BrandPlan</text>
</g>
<!-- BrandPlan&#45;&gt;Order -->
<g id="edge6" class="edge">
<title>BrandPlan&#45;&gt;Order</title>
<path fill="none" stroke="#d3cfb4" d="M121.3107,-65.2417C117.2312,-58.4109 112.7933,-50.98 108.6707,-44.0771"/>
<ellipse fill="none" stroke="#d3cfb4" cx="123.4167" cy="-68.7681" rx="4" ry="4"/>
<polygon fill="#d3cfb4" stroke="#d3cfb4" points="108.4352,-43.6827 107.1712,-32.7899 105.8715,-39.3899 103.3077,-35.0972 103.3077,-35.0972 103.3077,-35.0972 105.8715,-39.3899 99.4443,-37.4046 108.4352,-43.6827 108.4352,-43.6827"/>
</g>
<!-- BrandPlan&#45;&gt;User -->
<g id="edge7" class="edge">
<title>BrandPlan&#45;&gt;User</title>
<path fill="none" stroke="#a43cd7" d="M180.4136,-73.8459C207.9034,-63.564 243.8228,-49.6545 275.0969,-36 277.1182,-35.1175 279.1901,-34.186 281.271,-33.2303"/>
<polygon fill="#a43cd7" stroke="#a43cd7" points="180.0639,-73.9759 169.1224,-73.245 175.3776,-75.7192 170.6914,-77.4626 170.6914,-77.4626 170.6914,-77.4626 175.3776,-75.7192 172.2604,-81.6802 180.0639,-73.9759 180.0639,-73.9759"/>
<polygon fill="#a43cd7" stroke="#a43cd7" points="281.2785,-33.2268 292.2427,-33.0308 285.8008,-31.0938 290.323,-28.9608 290.323,-28.9608 290.323,-28.9608 285.8008,-31.0938 288.4033,-24.8908 281.2785,-33.2268 281.2785,-33.2268"/>
</g>
<!-- State -->
<g id="node9" class="node">
<title>State</title>
<ellipse fill="none" stroke="#000000" cx="159.0969" cy="-306" rx="28.6953" ry="18"/>
<text text-anchor="middle" x="159.0969" y="-302.3" font-family="Times,serif" font-size="14.00" fill="#000000">State</text>
</g>
<!-- Continent -->
<g id="node13" class="node">
<title>Continent</title>
<ellipse fill="none" stroke="#000000" cx="122.0969" cy="-234" rx="45.4919" ry="18"/>
<text text-anchor="middle" x="122.0969" y="-230.3" font-family="Times,serif" font-size="14.00" fill="#000000">Continent</text>
</g>
<!-- State&#45;&gt;Continent -->
<g id="edge8" class="edge">
<title>State&#45;&gt;Continent</title>
<path fill="none" stroke="#baf723" d="M140.954,-283.033C136.5858,-275.4945 132.212,-267.0746 128.6523,-259.3686"/>
<ellipse fill="none" stroke="#baf723" cx="143.1006" cy="-286.5949" rx="4" ry="4"/>
<ellipse fill="#baf723" stroke="#baf723" cx="127.0045" cy="-255.6214" rx="4" ry="4"/>
</g>
<!-- City -->
<g id="node14" class="node">
<title>City</title>
<ellipse fill="none" stroke="#000000" cx="229.0969" cy="-90" rx="27" ry="18"/>
<text text-anchor="middle" x="229.0969" y="-86.3" font-family="Times,serif" font-size="14.00" fill="#000000">City</text>
</g>
<!-- State&#45;&gt;City -->
<g id="edge9" class="edge">
<title>State&#45;&gt;City</title>
<path fill="none" stroke="#a9ad8e" d="M175.9353,-282.863C192.4473,-258.6198 216.4973,-218.7409 226.0969,-180 231.1026,-159.7986 231.7134,-136.2696 231.1466,-118.3367"/>
<ellipse fill="none" stroke="#a9ad8e" cx="173.5657" cy="-286.2816" rx="4" ry="4"/>
<polygon fill="#a9ad8e" stroke="#a9ad8e" points="231.1415,-118.2232 235.1811,-108.0285 230.9136,-113.2284 230.6858,-108.2336 230.6858,-108.2336 230.6858,-108.2336 230.9136,-113.2284 226.1904,-108.4387 231.1415,-118.2232 231.1415,-118.2232"/>
</g>
<!-- ProductType -->
<g id="node10" class="node">
<title>ProductType</title>
<ellipse fill="none" stroke="#000000" cx="551.0969" cy="-306" rx="55.7903" ry="18"/>
<text text-anchor="middle" x="551.0969" y="-302.3" font-family="Times,serif" font-size="14.00" fill="#000000">ProductType</text>
</g>
<!-- ProductType&#45;&gt;Product -->
<g id="edge10" class="edge">
<title>ProductType&#45;&gt;Product</title>
<path fill="none" stroke="#ca65c6" d="M524.7912,-283.4523C514.7839,-274.8746 503.3883,-265.1069 493.3829,-256.5309"/>
<ellipse fill="none" stroke="#ca65c6" cx="528.153" cy="-286.3338" rx="4" ry="4"/>
<polygon fill="#ca65c6" stroke="#ca65c6" points="493.3025,-256.462 488.6385,-246.5373 489.5062,-253.208 485.7099,-249.954 485.7099,-249.954 485.7099,-249.954 489.5062,-253.208 482.7813,-253.3707 493.3025,-256.462 493.3025,-256.462"/>
</g>
<!-- ProjectType -->
<g id="node12" class="node">
<title>ProjectType</title>
<ellipse fill="none" stroke="#000000" cx="349.0969" cy="-399" rx="53.8905" ry="18"/>
<text text-anchor="middle" x="349.0969" y="-395.3" font-family="Times,serif" font-size="14.00" fill="#000000">ProjectType</text>
</g>
<!-- ProjectType&#45;&gt;Project -->
<g id="edge11" class="edge">
<title>ProjectType&#45;&gt;Project</title>
<path fill="none" stroke="#38ec2a" d="M353.0947,-372.4432C354.9004,-360.4479 357.035,-346.268 358.8675,-334.0949"/>
<ellipse fill="none" stroke="#38ec2a" cx="352.4583" cy="-376.6708" rx="4" ry="4"/>
<polygon fill="#38ec2a" stroke="#38ec2a" points="358.8956,-333.9078 364.8342,-324.6891 359.64,-328.9635 360.3843,-324.0192 360.3843,-324.0192 360.3843,-324.0192 359.64,-328.9635 355.9345,-323.3493 358.8956,-333.9078 358.8956,-333.9078"/>
</g>
<!-- ProjectType&#45;&gt;Product -->
<g id="edge12" class="edge">
<title>ProjectType&#45;&gt;Product</title>
<path fill="none" stroke="#33d825" d="M368.7466,-375.1127C380.4872,-360.5759 395.5158,-341.4962 408.0969,-324 423.144,-303.0743 439.1071,-278.5663 450.6293,-260.4135"/>
<ellipse fill="none" stroke="#33d825" cx="366.1247" cy="-378.3439" rx="4" ry="4"/>
<polygon fill="#33d825" stroke="#33d825" points="450.8843,-260.0093 460.027,-253.9543 453.5529,-255.7809 456.2215,-251.5526 456.2215,-251.5526 456.2215,-251.5526 453.5529,-255.7809 452.416,-249.1509 450.8843,-260.0093 450.8843,-260.0093"/>
</g>
<!-- Continent&#45;&gt;State -->
<g id="edge14" class="edge">
<title>Continent&#45;&gt;State</title>
<path fill="none" stroke="#635308" d="M142.1821,-260.3761C145.5259,-266.3424 148.8012,-272.6893 151.6362,-278.6932"/>
<polygon fill="#635308" stroke="#635308" points="141.9862,-260.0422 140.8057,-249.14 139.4555,-255.73 136.9247,-251.4177 136.9247,-251.4177 136.9247,-251.4177 139.4555,-255.73 133.0437,-253.6954 141.9862,-260.0422 141.9862,-260.0422"/>
<polygon fill="#635308" stroke="#635308" points="151.6386,-278.6988 151.603,-289.6647 153.6756,-283.2651 155.7126,-287.8314 155.7126,-287.8314 155.7126,-287.8314 153.6756,-283.2651 159.8223,-285.9981 151.6386,-278.6988 151.6386,-278.6988"/>
</g>
<!-- Continent&#45;&gt;City -->
<g id="edge15" class="edge">
<title>Continent&#45;&gt;City</title>
<path fill="none" stroke="#642457" d="M117.2661,-205.726C115.5526,-186.7958 116.3998,-162.1215 128.0969,-144 130.2618,-140.646 169.4682,-120.2439 198.3835,-105.5063"/>
<polygon fill="#642457" stroke="#642457" points="117.2884,-205.9138 113.9998,-216.3749 117.8783,-210.8789 118.4683,-215.844 118.4683,-215.844 118.4683,-215.844 117.8783,-210.8789 122.9369,-215.313 117.2884,-205.9138 117.2884,-205.9138"/>
<polygon fill="#642457" stroke="#642457" points="198.4352,-105.48 209.3888,-104.9608 202.8926,-103.2146 207.3499,-100.9491 207.3499,-100.9491 207.3499,-100.9491 202.8926,-103.2146 205.311,-96.9375 198.4352,-105.48 198.4352,-105.48"/>
</g>
<!-- Country -->
<g id="node15" class="node">
<title>Country</title>
<ellipse fill="none" stroke="#000000" cx="177.0969" cy="-162" rx="39.7935" ry="18"/>
<text text-anchor="middle" x="177.0969" y="-158.3" font-family="Times,serif" font-size="14.00" fill="#000000">Country</text>
</g>
<!-- Continent&#45;&gt;Country -->
<g id="edge13" class="edge">
<title>Continent&#45;&gt;Country</title>
<path fill="none" stroke="#ac530b" d="M140.2919,-210.1811C145.8379,-202.9209 151.9562,-194.9115 157.5855,-187.5422"/>
<ellipse fill="none" stroke="#ac530b" cx="137.839" cy="-213.3921" rx="4" ry="4"/>
<polygon fill="#ac530b" stroke="#ac530b" points="157.8351,-187.2154 167.4816,-182.0004 160.8703,-183.2421 163.9055,-179.2687 163.9055,-179.2687 163.9055,-179.2687 160.8703,-183.2421 160.3295,-176.537 157.8351,-187.2154 157.8351,-187.2154"/>
</g>
<!-- City&#45;&gt;User -->
<g id="edge16" class="edge">
<title>City&#45;&gt;User</title>
<path fill="none" stroke="#69ef68" d="M252.3037,-69.8688C263.3045,-60.3259 276.4494,-48.9232 287.6093,-39.2423"/>
<ellipse fill="none" stroke="#69ef68" cx="248.9147" cy="-72.8086" rx="4" ry="4"/>
<polygon fill="#69ef68" stroke="#69ef68" points="287.7717,-39.1014 298.2743,-35.9479 291.5486,-35.825 295.3256,-32.5486 295.3256,-32.5486 295.3256,-32.5486 291.5486,-35.825 292.3768,-29.1493 287.7717,-39.1014 287.7717,-39.1014"/>
</g>
<!-- Company -->
<g id="node22" class="node">
<title>Company</title>
<ellipse fill="none" stroke="#000000" cx="221.0969" cy="-18" rx="45.4919" ry="18"/>
<text text-anchor="middle" x="221.0969" y="-14.3" font-family="Times,serif" font-size="14.00" fill="#000000">Company</text>
</g>
<!-- City&#45;&gt;Company -->
<g id="edge17" class="edge">
<title>City&#45;&gt;Company</title>
<path fill="none" stroke="#e3fc9d" d="M226.1874,-63.8144C225.5722,-58.2775 224.9197,-52.4053 224.2945,-46.7785"/>
<ellipse fill="none" stroke="#e3fc9d" cx="226.6364" cy="-67.8558" rx="4" ry="4"/>
<polygon fill="#e3fc9d" stroke="#e3fc9d" points="224.2472,-46.3521 227.6153,-35.9163 223.695,-41.3827 223.1428,-36.4133 223.1428,-36.4133 223.1428,-36.4133 223.695,-41.3827 218.6703,-36.9102 224.2472,-46.3521 224.2472,-46.3521"/>
</g>
<!-- Country&#45;&gt;State -->
<g id="edge18" class="edge">
<title>Country&#45;&gt;State</title>
<path fill="none" stroke="#436171" d="M178.8262,-188.3605C179.5161,-206.3931 179.4786,-230.7821 176.0969,-252 174.6891,-260.8325 172.1341,-270.209 169.4254,-278.6267"/>
<ellipse fill="none" stroke="#436171" cx="178.6263" cy="-184.0562" rx="4" ry="4"/>
<polygon fill="#436171" stroke="#436171" points="169.3471,-278.8557 161.8538,-286.8619 167.7295,-283.5868 166.1118,-288.3178 166.1118,-288.3178 166.1118,-288.3178 167.7295,-283.5868 170.3698,-289.7738 169.3471,-278.8557 169.3471,-278.8557"/>
</g>
<!-- Country&#45;&gt;City -->
<g id="edge19" class="edge">
<title>Country&#45;&gt;City</title>
<path fill="none" stroke="#4cf934" d="M195.7405,-136.1858C200.8045,-129.174 206.2743,-121.6005 211.2908,-114.6546"/>
<polygon fill="#4cf934" stroke="#4cf934" points="195.5396,-136.464 186.0366,-141.9361 192.6121,-140.5174 189.6846,-144.5708 189.6846,-144.5708 189.6846,-144.5708 192.6121,-140.5174 193.3327,-147.2055 195.5396,-136.464 195.5396,-136.464"/>
<polygon fill="#4cf934" stroke="#4cf934" points="211.4829,-114.3885 220.986,-108.9164 214.4104,-110.3351 217.3379,-106.2817 217.3379,-106.2817 217.3379,-106.2817 214.4104,-110.3351 213.6898,-103.647 211.4829,-114.3885 211.4829,-114.3885"/>
</g>
<!-- Brand -->
<g id="node16" class="node">
<title>Brand</title>
<ellipse fill="none" stroke="#000000" cx="664.0969" cy="-399" rx="32.4942" ry="18"/>
<text text-anchor="middle" x="664.0969" y="-395.3" font-family="Times,serif" font-size="14.00" fill="#000000">Brand</text>
</g>
<!-- Project&#45;&gt;Specification -->
<g id="edge20" class="edge">
<title>Project&#45;&gt;Specification</title>
<path fill="none" stroke="#923f26" d="M377.4231,-281.7296C392.636,-255.9572 416.6128,-215.3378 432.3471,-188.682"/>
<ellipse fill="none" stroke="#923f26" cx="375.3832" cy="-285.1856" rx="4" ry="4"/>
<polygon fill="#923f26" stroke="#923f26" points="432.4576,-188.4948 441.4161,-182.1706 434.9992,-184.1889 437.5409,-179.8831 437.5409,-179.8831 437.5409,-179.8831 434.9992,-184.1889 433.6656,-177.5956 432.4576,-188.4948 432.4576,-188.4948"/>
</g>
<!-- Project&#45;&gt;Role -->
<g id="edge23" class="edge">
<title>Project&#45;&gt;Role</title>
<path fill="none" stroke="#36b60a" d="M362.6095,-279.6835C361.8521,-238.7826 360.3987,-160.3001 359.62,-118.2494"/>
<ellipse fill="none" stroke="#36b60a" cx="362.6886" cy="-283.9562" rx="4" ry="4"/>
<polygon fill="#36b60a" stroke="#36b60a" points="359.6182,-118.1434 363.9321,-108.0617 359.5255,-113.1442 359.4329,-108.1451 359.4329,-108.1451 359.4329,-108.1451 359.5255,-113.1442 354.9337,-108.2284 359.6182,-118.1434 359.6182,-118.1434"/>
</g>
<!-- Event -->
<g id="node18" class="node">
<title>Event</title>
<ellipse fill="none" stroke="#000000" cx="304.0969" cy="-162" rx="31.3957" ry="18"/>
<text text-anchor="middle" x="304.0969" y="-158.3" font-family="Times,serif" font-size="14.00" fill="#000000">Event</text>
</g>
<!-- Project&#45;&gt;Event -->
<g id="edge22" class="edge">
<title>Project&#45;&gt;Event</title>
<path fill="none" stroke="#dd799e" d="M352.7244,-280.684C342.2136,-255.0307 326.008,-215.4779 315.2317,-189.1765"/>
<ellipse fill="none" stroke="#dd799e" cx="354.3458" cy="-284.6414" rx="4" ry="4"/>
<polygon fill="#dd799e" stroke="#dd799e" points="315.182,-189.0551 315.5547,-178.0955 313.2863,-184.4284 311.3906,-179.8017 311.3906,-179.8017 311.3906,-179.8017 313.2863,-184.4284 307.2266,-181.5078 315.182,-189.0551 315.182,-189.0551"/>
</g>
<!-- Project&#45;&gt;Product -->
<g id="edge21" class="edge">
<title>Project&#45;&gt;Product</title>
<path fill="none" stroke="#f2c302" d="M392.5262,-285.6259C406.4434,-275.9909 423.0369,-264.5031 437.0339,-254.8128"/>
<polygon fill="#f2c302" stroke="#f2c302" points="392.3648,-285.7376 381.5814,-287.7299 388.2538,-288.5837 384.1428,-291.4297 384.1428,-291.4297 384.1428,-291.4297 388.2538,-288.5837 386.7043,-295.1296 392.3648,-285.7376 392.3648,-285.7376"/>
<polygon fill="#f2c302" stroke="#f2c302" points="437.1444,-254.7364 447.9278,-252.7441 441.2553,-251.8903 445.3663,-249.0442 445.3663,-249.0442 445.3663,-249.0442 441.2553,-251.8903 442.8049,-245.3444 437.1444,-254.7364 437.1444,-254.7364"/>
</g>
<!-- Event&#45;&gt;Role -->
<g id="edge25" class="edge">
<title>Event&#45;&gt;Role</title>
<path fill="none" stroke="#567622" d="M321.7351,-138.91C327.7972,-130.9742 334.5963,-122.0735 340.716,-114.0623"/>
<ellipse fill="none" stroke="#567622" cx="319.2814" cy="-142.1221" rx="4" ry="4"/>
<polygon fill="#567622" stroke="#567622" points="340.7176,-114.0601 350.3641,-108.8451 343.7528,-110.0867 346.7881,-106.1134 346.7881,-106.1134 346.7881,-106.1134 343.7528,-110.0867 343.212,-103.3817 340.7176,-114.0601 340.7176,-114.0601"/>
</g>
<!-- Event&#45;&gt;User -->
<g id="edge24" class="edge">
<title>Event&#45;&gt;User</title>
<path fill="none" stroke="#6999fe" d="M305.556,-135.7351C306.9976,-109.7873 309.1904,-70.3165 310.6334,-44.3419"/>
<ellipse fill="none" stroke="#6999fe" cx="305.332" cy="-139.7685" rx="4" ry="4"/>
<ellipse fill="#6999fe" stroke="#6999fe" cx="310.87" cy="-40.0835" rx="4" ry="4"/>
</g>
<!-- Gender -->
<g id="node19" class="node">
<title>Gender</title>
<ellipse fill="none" stroke="#000000" cx="441.0969" cy="-90" rx="36.2938" ry="18"/>
<text text-anchor="middle" x="441.0969" y="-86.3" font-family="Times,serif" font-size="14.00" fill="#000000">Gender</text>
</g>
<!-- Gender&#45;&gt;User -->
<g id="edge26" class="edge">
<title>Gender&#45;&gt;User</title>
<path fill="none" stroke="#d4d1e5" d="M409.752,-72.5052C389.1675,-61.0162 362.3955,-46.0737 342.09,-34.7403"/>
<ellipse fill="none" stroke="#d4d1e5" cx="413.3402" cy="-74.5079" rx="4" ry="4"/>
<polygon fill="#d4d1e5" stroke="#d4d1e5" points="341.9929,-34.6862 335.4541,-25.8831 337.6269,-32.2493 333.2609,-29.8125 333.2609,-29.8125 333.2609,-29.8125 337.6269,-32.2493 331.0678,-33.7419 341.9929,-34.6862 341.9929,-34.6862"/>
</g>
<!-- Product&#45;&gt;Specification -->
<g id="edge27" class="edge">
<title>Product&#45;&gt;Specification</title>
<path fill="none" stroke="#dc41d8" d="M460.2601,-208.0923C458.7494,-202.3673 457.1408,-196.2718 455.605,-190.4519"/>
<ellipse fill="none" stroke="#dc41d8" cx="461.2817" cy="-211.9638" rx="4" ry="4"/>
<polygon fill="#dc41d8" stroke="#dc41d8" points="455.5076,-190.0823 457.307,-179.265 454.2317,-185.2478 452.9559,-180.4133 452.9559,-180.4133 452.9559,-180.4133 454.2317,-185.2478 448.6049,-181.5615 455.5076,-190.0823 455.5076,-190.0823"/>
</g>
<!-- ApplicationRecord -->
<g id="node21" class="node">
<title>ApplicationRecord</title>
<ellipse fill="none" stroke="#000000" cx="792.0969" cy="-399" rx="77.1866" ry="18"/>
<text text-anchor="middle" x="792.0969" y="-395.3" font-family="Times,serif" font-size="14.00" fill="#000000">ApplicationRecord</text>
</g>
</g>
</svg>
